<svg xmlns="http://www.w3.org/2000/svg" xmlns:xlink="http://www.w3.org/1999/xlink" viewBox="0 0 1920 5074">
  <defs>
    <style>
      .cls-1 {
        clip-path: url(#clip-Playfest_Landing_-_Day_1);
      }

      .cls-2 {
        opacity: 0.8;
      }

      .cls-3 {
        fill: url(#linear-gradient);
      }

      .cls-4 {
        fill: url(#linear-gradient-2);
      }

      .cls-5 {
        fill: url(#linear-gradient-3);
      }

      .cls-6 {
        fill: url(#linear-gradient-4);
      }

      .cls-7 {
        fill: url(#linear-gradient-5);
      }

      .cls-8 {
        fill: rgba(0,0,0,0);
      }

      .cls-9 {
        fill: #032440;
      }
    </style>
    <linearGradient id="linear-gradient" y1="0.5" x2="1" y2="0.5" gradientUnits="objectBoundingBox">
      <stop offset="0" stop-color="#f19a24"/>
      <stop offset="1" stop-color="#fae35c"/>
    </linearGradient>
    <linearGradient id="linear-gradient-2" y1="0.5" x2="1" y2="0.5" gradientUnits="objectBoundingBox">
      <stop offset="0" stop-color="#f15a24"/>
      <stop offset="1" stop-color="#ee4a6c"/>
    </linearGradient>
    <linearGradient id="linear-gradient-3" y1="0.5" x2="1" y2="0.5" gradientUnits="objectBoundingBox">
      <stop offset="0" stop-color="#ee4a6c"/>
      <stop offset="1" stop-color="#624b9e"/>
    </linearGradient>
    <linearGradient id="linear-gradient-4" y1="0.5" x2="1" y2="0.5" gradientUnits="objectBoundingBox">
      <stop offset="0" stop-color="#f15a24"/>
      <stop offset="1" stop-color="#624b9e"/>
    </linearGradient>
    <linearGradient id="linear-gradient-5" y1="0.5" x2="1" y2="0.5" gradientUnits="objectBoundingBox">
      <stop offset="0" stop-color="#f19a24"/>
      <stop offset="1" stop-color="#ee4a6c"/>
    </linearGradient>
    <clipPath id="clip-Playfest_Landing_-_Day_1">
      <rect width="1920" height="5074"/>
    </clipPath>
  </defs>
  <g id="Playfest_Landing_-_Day_1" data-name="Playfest Landing - Day 1" class="cls-1">
    <rect class="cls-9" width="1920" height="5074"/>
    <g id="bg">
      <g id="Group_2588" data-name="Group 2588">
        <g id="Group_2578" data-name="Group 2578" transform="translate(3 -3606)">
          <g id="Group_2585" data-name="Group 2585" transform="translate(-3.187 3605.908)">
            <g id="Group_23" data-name="Group 23" class="cls-2" transform="translate(-557.774 -20.134)">
              <path id="Path_12" data-name="Path 12" class="cls-3" d="M166.6,5322.386c225.373-42.679,384.692-176.959,460.006-244.553,82.091-69.925,218.343-233.438,378.847-516.69,159.943-283.341,315.944-486.462,414.74-576.439,87.737-87.486,292.574-257.306,566.208-288.364,184.456-18.643,287.807,39.4,343.255,104.468v-33.923c-59.9-58.627-162.009-105.173-331.984-88.9-286.874,31.39-498.948,209.225-588.962,300.238-96.105,88.939-248.176,287.2-403.257,560.332C849.806,4811.682,720.33,4972.118,642.223,5041.37c-75.676,70.673-236.131,212.758-465.953,257.929-230.959,41.608-346.932-59.534-387.536-122.978-54.417-46.923-49.452-149.892-107.488-358.832v41.276c48.623,204.7,45.106,303.023,101.228,348.7C-176.352,5267.41-59.863,5361.918,166.6,5322.386Z" transform="translate(318.755 -3584.232)"/>
              <path id="Path_13" data-name="Path 13" class="cls-4" d="M137.68,5382.375c235.408-40.613,402.279-175.641,480.231-243.236,85.038-70.085,227.393-233.846,387.536-517.771,159.318-284,308.391-488.948,403.882-580.211,84.527-88.565,281.186-261,545.2-294.716,244.765-28.028,343.466,89.727,375.12,172.312v-51.361c-45.828-79.6-149.9-163.551-363.944-140.217-277.162,34.172-480.856,214.954-567.554,307.048-92.895,90.31-238.251,290.606-392.705,564.73-155.08,274.12-290.083,434.726-370.931,504.31-78.418,70.919-246.375,213.923-486.49,256.849-241.46,39.362-358.621-66.183-397.312-131.864-43.761-40.442-46.5-120.494-69.469-268.149v92.764c14.018,109.866,22.811,171.975,62.072,206.109C-216.854,5320.919-98.813,5419.653,137.68,5382.375Z" transform="translate(318.755 -3579.858)"/>
              <path id="Path_14" data-name="Path 14" class="cls-5" d="M276.293,5120.768c196.562-48.24,335.4-177.458,403.677-243.4,74.275-67.424,195.063-227.121,359.6-502.568,164.8-275.949,342.322-469.769,451.267-554.471,75.415-63.777,227.7-171.773,430.26-228.616h-44.387c-187.243,61.535-327.427,162.182-398.7,223.218-105.322,83.458-277.882,272.13-438.438,537.282-160.144,264.659-275.657,420.357-346.621,487.212-68.952,68.589-208.871,204.7-409.158,255.352-201.423,47.748-316.153-37.373-364.467-92.509-64.606-43.437-65.123-146.235-203.958-368.959v17.355c136.248,235.183,134.179,340.141,202.2,383.654C-35,5086.729,78.75,5166.279,276.293,5120.768Z" transform="translate(330.977 -3591.717)"/>
              <path id="Path_15" data-name="Path 15" class="cls-6" d="M219.2,5193.1c205.871-46.5,351.069-178.038,421.364-244.638,76.814-68.674,202.3-230.275,364.881-509.05,162.315-278.814,332.6-476.746,438.438-563.649,94.654-84.453,314.6-247.466,606.75-272.834,125.185-9.509,214.35,11.916,279.015,45.215v-24c-33.826-15.239-75.83-25.785-123.32-32.429H2024.872c-286.77,35.542-500.506,194.36-593.3,278.482-102.525,85.45-268.357,278.523-426.128,546.625-157.972,268.224-277.72,426.168-350.914,494.264-70.917,69.423-217.1,207.936-427.107,257.019-210.993,45.833-325.568-44.924-371.036-103.053-62.33-46.09-58.709-153.379-175.146-382.83v19.686c112.35,240.735,105.729,348.773,171.63,394.777C-102.124,5151.833,12.141,5236.867,219.2,5193.1Z" transform="translate(318.755 -3591.717)"/>
              <path id="Path_16" data-name="Path 16" class="cls-7" d="M193.856,5259.449c215.494-44.593,367.622-177.8,440.349-245.062,79.3-69.339,209.859-232.019,371.242-513.7,160.768-281.678,324.017-482.432,426.329-570.955,91.148-86.115,303.635-252.78,586.792-281.014,150.111-13.287,247.976,20.677,311.082,67.6v-26.781c-64.559-41.729-159.625-69.922-299.917-58.255-296.494,28.484-516.332,203-609.853,292.476-99.421,87.359-258.22,283.132-414.433,554.433C848.82,4749.569,724.52,4908.679,648.948,4977.6c-73.142,70.256-226.356,210.683-446.04,257.843-220.872,43.853-335.964-52.313-378.847-113.182-59.226-47.586-53.484-155.955-142.816-383.236v25.655c82.866,234.595,75.521,341.723,137.851,388.968C-137.97,5211.2-22.724,5301.133,193.856,5259.449Z" transform="translate(318.755 -3588.387)"/>
              <path id="Path_17" data-name="Path 17" class="cls-7" d="M-49.984,4834.191c55.658,42.441,169.819,103.8,343.827,53.318,173.285-52.9,295.723-172.809,358.932-234.264,68.744-62.7,178.768-212.838,352.672-472.427,174.626-259.632,373.361-439,491.5-515.983,29.281-20.636,69.738-46.42,118.458-73.119h-24.725a1250.1,1250.1,0,0,0-107.8,68.427c-114.412,75.693-306.939,249.75-477.434,498.128-169.816,248.421-276.118,394.164-342.12,455.856-64.556,63.778-188.492,189.341-365.5,244.647-177.733,52.73-294.377-12.619-352.414-57.3-67.916-32.892-85.659-112.11-264.167-290.148v13.945C-134.609,4718.263-121.47,4800.645-49.984,4834.191Z" transform="translate(318.755 -3591.717)"/>
              <path id="Path_18" data-name="Path 18" class="cls-3" d="M-33.445,4903.122c52.657,45.918,166.3,113.844,347.448,64.855,180.422-51.4,307.567-175.053,372.121-238.166,70.292-64.525,183.167-218.4,353.449-484.386,170.907-265.9,362.609-450.669,477.645-530.515,44.694-33.507,115.45-79.763,205.25-123.194h-27.521c-83.276,42.227-148.766,86.074-191.183,118.253-111.731,78.557-297.628,258.177-464.192,512.95-166.1,254.855-274.766,404.33-342.12,468.105-65.642,65.6-194.13,195.156-378.174,249.213-184.87,51.072-300.377-21.258-354.947-69.67-67.348-36.956-77.952-124.653-248.961-321.041v14.779C-111.295,4774.82-104.311,4865.748-33.445,4903.122Z" transform="translate(330.977 -3591.717)"/>
              <path id="Path_19" data-name="Path 19" class="cls-4" d="M-89.916,4969.883c49.916,49.329,163.559,123.155,352.568,75.655,187.976-49.746,320.757-176.3,387.072-240.989,72.055-66.1,188.547-223.132,355.724-494.434,167.59-271.257,352.26-460.926,464.192-543.385,59.388-47.376,165.218-119.291,303.74-175.013h-31.865c-129.413,56.054-228.315,124.231-284.8,169.905-108.945,81.216-288.02,265.735-451.267,525.988-162.887,260.251-274.668,413.222-343.517,478.571-67.348,67.347-201.217,200.215-392.916,252.613-192.734,49.5-307.67-29.226-359.034-81.292-66.418-40.443-70.867-136.022-228.736-348.033v15.7C-160.936,4830.7-159.8,4929.031-89.916,4969.883Z" transform="translate(318.755 -3591.717)"/>
              <path id="Path_20" data-name="Path 20" class="cls-4" d="M-31.827,4614.461c65.538,30.731,184.043,69.924,342.637,15.365,158.18-56.054,271.928-161.762,333.74-217.071,66.676-55.556,172.818-190.583,360.9-425.757,142.865-177.294,301.674-311.324,425.2-395.281h-20.69c-118.15,81.548-268.05,207.9-404.506,372.735C821.4,4188.292,717.381,4318.668,652.672,4372.978c-63.78,56.885-180.164,166.669-342.637,225.292-162.992,56.8-285.79,15.2-354.846-16.853-65.589-20.18-103.971-70.588-273.945-184.938v14.367C-136.057,4539.23-101.3,4593.458-31.827,4614.461Z" transform="translate(318.755 -3591.717)"/>
              <path id="Path_21" data-name="Path 21" class="cls-5" d="M2.5,4689.869c62.02,34.873,178.663,81.881,341.344,28.564,162.112-55.308,277.617-166.083,339.535-223.719,66.877-58.292,173.492-199.132,356.189-443.069,167.8-222.761,358.159-380.291,484.266-459.929h-21.834c-122.071,79.306-302.289,229.861-462.433,437.383-178.609,232.685-282.691,368.79-347.4,426-63.469,59.542-181.251,174.968-347.346,232.681-166.766,55.563-286.979,5.732-352.205-30.808-67.193-24.66-98.85-84.865-277.256-221.553v14.279C-96.345,4600.516-68.257,4664.538,2.5,4689.869Z" transform="translate(330.977 -3591.717)"/>
              <path id="Path_22" data-name="Path 22" class="cls-6" d="M-37.878,4763.2c58.709,38.776,174.008,93.088,341.86,41.106,167.078-54.064,285.687-169.662,347.915-229.365,67.554-60.621,175.356-206.277,353.551-458.767,179.075-252.406,384.326-425.674,505.368-499.582,11.485-7.557,25.351-16.151,39.832-24.872H1528.4c-11.165,6.976-22.86,14.118-32.172,20.3-117.007,72.578-315.838,240.572-490.781,481.6-174.01,241.155-278.755,382.323-343.878,441.865-63.779,61.7-184.1,182.527-355.053,239.162-171.68,54.149-289.979-3.734-351.43-44.423-67.865-28.818-93.056-98.819-273.841-256.516v14.031C-130.161,4660.056-109.262,4733.629-37.878,4763.2Z" transform="translate(318.755 -3591.717)"/>
              <path id="Path_23" data-name="Path 23" class="cls-6" d="M281.222,4348.065c156.319-58.628,271.67-145.656,336.38-191.869,69.157-46.047,180.475-160.728,387.846-363.143,80.077-77.437,163.661-144.618,243.939-201.336h-23.273c-72.726,51.487-148.047,110.987-220.666,178.79-203.186,191.33-313.723,300.779-381.692,345.5-67.554,47.334-187.095,136.728-349.568,197.681-162.577,59.791-294.688,45.674-374.863,28.733-55.089-7.64-102.212-28.733-218.08-77.977V4281.8C-185.094,4342.335-137.3,4367-77.243,4375.3-1.722,4391.745,124.7,4405.7,281.222,4348.065Z" transform="translate(318.755 -3591.717)"/>
              <path id="Path_24" data-name="Path 24" class="cls-7" d="M297.051,4444.56c155.231-57.963,268.617-151.635,331.878-201.128,67.659-49.493,176.076-171.441,376.519-385.731,100.968-107,208.662-196.146,307.257-265.985h-21.516c-92.08,65.438-191.5,146.777-285.741,243.439-196.353,203.08-303.583,320.086-369.793,368.333-65.694,50.739-182.751,147.317-343.414,207.688-160.974,58.962-289.411,35.3-365.966,13.121-60.056-11.792-106.2-42.186-245.029-112.523V4327.8c155.076,82.627,200.287,116.842,264.686,129.3C18.09,4478.607,141.509,4501.193,297.051,4444.56Z" transform="translate(318.755 -3591.717)"/>
              <path id="Path_25" data-name="Path 25" class="cls-3" d="M306.724,4538.566c155.749-56.973,268.72-156.952,331.1-209.434,66.779-52.815,173.6-181.531,367.622-406.783,121.455-139.884,253.771-251.2,367.259-330.633h-20.689c-107.695,75.943-231.63,179.5-346.57,308.086-190,213.917-295,337.815-360.121,389.3-64.607,54.144-180.63,157.445-341.346,216.987-161.025,57.884-286.411,25.161-359.242-2.075-63.416-16.029-106.556-56.387-263.495-148.562v15.031c171.888,105.631,212.131,149.645,279.634,166.584C29.779,4563.141,150.561,4594.205,306.724,4538.566Z" transform="translate(318.755 -3591.717)"/>
              <path id="Path_26" data-name="Path 26" class="cls-3" d="M-203.094,4116.418c85.244.5,223.614-15.03,395.088-74.53,171.733-59.708,303.171-123.234,376.519-158.695,78-34.129,205.718-122.777,436.935-283.962,3.825-2.615,7.659-4.941,11.483-7.516H982.586C770.5,3732.224,647.862,3811.862,573.272,3843.128c-77.229,35.541-215.391,99.651-396.124,161.6-180.63,61.7-325.826,78.972-416.089,79.264a605.923,605.923,0,0,1-79.814-2.533v26.823C-270.856,4115.547-236.975,4117.416-203.094,4116.418Z" transform="translate(318.755 -3591.717)"/>
              <path id="Path_27" data-name="Path 27" class="cls-4" d="M229.186,4146.6c164.44-59.5,288.634-131.372,358.363-170.61,74.382-38.407,195.263-136.563,417.9-312.238,32.586-25.453,65.49-49.2,98.383-72.04h-28.858c-23.284,15.987-46.506,32.262-69.525,49.494-218.24,164.8-339.224,257.887-412.727,294.634-73.245,39.694-203.13,112.771-375.536,174.554-172.353,61.285-312.689,67.513-399.847,61.783-38.383-.83-76.35-6.145-136.094-19.971v22.213c78.625,21.425,121.868,29.148,167.594,30.477C-69.02,4210.963,64.849,4205.648,229.186,4146.6Z" transform="translate(318.755 -3591.717)"/>
              <path id="Path_28" data-name="Path 28" class="cls-5" d="M258.773,4248.747c159.266-59.126,278.186-138.931,345.173-181.738,71.279-42.311,186.685-148.978,401.5-338.6a2089.379,2089.379,0,0,1,175.039-136.688h-25.753c-49.759,34.878-99.994,72.7-149.285,114.142-210.633,178.54-325.619,280.184-395.864,320.958-70.09,43.638-194.079,125.144-360.277,186.554-166.3,60.62-302.394,56.469-386.088,45.008-48.1-3.819-93.21-16.442-181.973-46.336v19.265c107.746,39.695,155.336,55.389,209.389,59.875C-30.637,4302.475,99.4,4307.043,258.773,4248.747Z" transform="translate(318.755 -3591.717)"/>
              <path id="Path_29" data-name="Path 29" class="cls-5" d="M493.4,3594.042c3-.622,6.621-1.619,9.726-2.325H326.9c-88.815,19.764-197.544,45.341-322.1,79.8-129.678,36.414-235.976,68.344-323.55,93.423v46.67c89.487-24.124,204.578-58.711,347.965-100.066C239.531,3651.591,404.746,3615.841,493.4,3594.042Z" transform="translate(318.755 -3591.717)"/>
              <path id="Path_30" data-name="Path 30" class="cls-6" d="M521.545,3692.281c54.572-15.363,131.436-47.625,241.456-100.564H692.345c-70.916,29.938-125.539,49.95-166.507,60.746-87.316,26.2-247.719,70.795-454.264,132.826-164.388,49.908-295.05,84.745-390.33,103.844v40.233c91.556-14.075,230.39-48.911,411.33-105.09C287.172,3764.237,438.834,3718.813,521.545,3692.281Z" transform="translate(318.755 -3591.717)"/>
              <path id="Path_31" data-name="Path 31" class="cls-7" d="M146.681,3934.391c181.613-59.79,322.206-114.6,399.848-145.823,70.917-25.41,181.82-87.485,364.16-196.851H864.955c-151.815,85.078-249.837,135.192-313.926,156.908-81.936,31.017-230.237,85.659-422.245,147.733C-62.966,3958.432-213.44,3987-306.5,3993.559c-4.034.373-8.172.705-12.259,1v33.758c18.776-.167,36-1.038,52.71-2.491C-177.9,4020.382-34.827,3994.347,146.681,3934.391Z" transform="translate(318.755 -3591.717)"/>
              <path id="Path_32" data-name="Path 32" class="cls-4" d="M-26.966,3591.717H-205.423c-40.139,11.627-78.365,23.086-113.332,34.048v50.821c77.072-24.414,168.06-52.357,274.617-80.592C-38.241,3594.458-32.81,3593.213-26.966,3591.717Z" transform="translate(318.755 -3591.717)"/>
              <path id="Path_33" data-name="Path 33" class="cls-3" d="M1422.235,5545.579H1675.7c10.139-1.164,20.382-2.406,30.415-3.4v-43.189c-88.043,6.566-181.247,19.185-273.74,43.522C1428.856,5543.5,1425.647,5544.584,1422.235,5545.579Z" transform="translate(942.293 -3419.7)"/>
              <path id="Path_34" data-name="Path 34" class="cls-4" d="M1423.948,5230.86c-185.177,63.284-309.525,189.009-388.468,248.635-29.377,23.751-70.034,56.216-123.523,93.088h53.594c37.649-26.241,68.487-49.745,91.868-67.85,77.894-56.463,201.32-174.713,384.632-235.75,159.731-51.157,325.776-30.061,446.818-13.122v-30.23C1764.416,5205.453,1590.924,5176.388,1423.948,5230.86Z" transform="translate(759.536 -3446.704)"/>
              <path id="Path_35" data-name="Path 35" class="cls-5" d="M1436.849,5332.3c-193.356,61.871-324.738,174.977-409.264,231.525h64.356c83.583-56.965,202.456-141.507,366.116-192.494,135.006-40.6,273.634-40.273,389.4-32.883v-34.21C1726.627,5293.273,1579.513,5288.452,1436.849,5332.3Z" transform="translate(800.948 -3437.942)"/>
              <path id="Path_36" data-name="Path 36" class="cls-7" d="M1448.393,5436.292c-109.241,32.466-200.178,76.565-275.392,118.667h93.828c60-28.487,128.394-56.217,205.983-78.555,109.866-30.562,221.385-40.613,322.565-42.773v-38.614C1687.375,5394.522,1566.851,5402.491,1448.393,5436.292Z" transform="translate(853.029 -3429.079)"/>
              <path id="Path_37" data-name="Path 37" class="cls-6" d="M1406.783,4942.093c-163.968,62.117-273.221,209.765-340.364,280.929-64.864,71.336-181.033,213.831-406.773,366.716-4.29,2.906-8.592,5.313-12.882,8.136h34.091c221.9-147.4,337.778-284.084,402.748-353.345,65.278-67.757,172.655-207.1,332.6-267.232,159.318-57.3,314.4,4.65,416.3,36.872,41.273,12.211,86.9,29.32,151.351,51.4v-21.088c-65.9-24.253-111.424-43.02-152.7-56.3C1726.869,4952.476,1570.041,4883.052,1406.783,4942.093Z" transform="translate(664.557 -3471.996)"/>
              <path id="Path_38" data-name="Path 38" class="cls-7" d="M1409.035,5035.666c-168.535,62.7-281.186,203.7-351.338,271.21-58.032,58.632-158.067,166.082-334.875,282.758h39.313c162.94-107.374,258.019-205.359,314.185-259.917,68.7-64.278,179.594-196.976,345.025-257.6,164.794-57.883,330.637-4.233,439.571,22.917,28.031,6.812,58.858,15.367,95.693,25.494v-23.665c-39.006-11.794-70.862-21.591-99.941-29.312C1745.149,5036.991,1577.039,4976.124,1409.035,5035.666Z" transform="translate(691.797 -3463.756)"/>
              <path id="Path_39" data-name="Path 39" class="cls-3" d="M1414.977,5132.024c-175.557,62.944-293.3,196.474-367.365,260.25-46.761,42.517-121.457,111.779-237.118,188.922H857.16c100.246-67.016,167.284-126.642,210.633-164.669,73.138-60.708,189.212-186.431,361.973-247.3,172.463-58.376,350.606-13.036,466.374,8.8,9.312,1.743,19.036,3.734,29.069,5.732v-27.076c-12.723-2.822-24.831-5.646-36.316-8.052C1770.34,5123.631,1589.921,5071.981,1414.977,5132.024Z" transform="translate(723.197 -3455.318)"/>
              <path id="Path_40" data-name="Path 40" class="cls-3" d="M1797.7,4761.948c-83.382-50.162-212.074-142.672-373.149-86.447-161.7,59.789-271.049,224.545-332.609,305.259-61.866,80.223-164.18,245.063-366.327,438.543-88.192,83.547-178.662,149.483-263.029,202.128h27.257A1673.876,1673.876,0,0,0,725.611,5442.06c211.459-195.726,316.569-362.812,379.982-443.28,60-77.229,166.045-232.844,321.633-290.812,155.081-54.8,282.638,29.066,364.675,75.154,60.935,28.733,117.632,77.646,257.913,151.549v-15.688C1911.906,4842.833,1856.565,4791.922,1797.7,4761.948Z" transform="translate(598.592 -3495.553)"/>
              <path id="Path_41" data-name="Path 41" class="cls-4" d="M1414.138,4761.781c-160.662,60.953-268.463,220.393-331.369,298.2-62.067,77.646-168.312,236.007-377.292,416.374C643.144,5529.588,580.145,5574.6,518.8,5613.79h28.656a1687.781,1687.781,0,0,0,158.025-114.934c218.907-182.025,327.84-341.883,391.986-419.775,61.242-74.073,166.149-224.961,321.431-283.839,154.869-55.8,290.594,21.428,379.05,62.952,56.7,23.248,114.316,61.029,231.736,115.588v-17.024c-116.286-57.05-172.867-96.821-228.218-121.319C1711.247,4789.842,1574.281,4704.561,1414.138,4761.781Z" transform="translate(618.725 -3487.911)"/>
              <path id="Path_42" data-name="Path 42" class="cls-5" d="M1408.208,4850.667c-161.075,61.617-269.088,215.412-333.54,290.064-63.414,74.491-173.8,225.292-390.947,392.455-34.758,26.5-69.516,50.247-104.178,72.747h30.88c24.418-15.944,48.88-32.39,73.3-50.238,227.5-168.081,341.4-319.877,406.572-394.7,63.106-71.006,168.323-216.406,325.151-276.034,156.012-56.557,300.943,13.368,396.021,50.153,50.489,17.772,104.591,44.849,196.459,82.051v-18.938c-91.974-39.608-145.451-68.428-195.219-87.356C1715.465,4870.1,1568.967,4792.538,1408.208,4850.667Z" transform="translate(640.482 -3480.053)"/>
              <path id="Path_43" data-name="Path 43" class="cls-5" d="M782.7,5269.746c190.77-229.943,292.363-415.21,357.535-502.489,59.377-83.539,175.039-251.288,341.4-306.178,166.138-51.318,273.94,51.319,337.46,108.7,65.076,43.6,102.524,126.14,287.807,262.75v-12.874c-178.768-137.435-214.871-221.722-276.843-266.568-63.934-62.195-172.041-174.381-345.745-121.736-174.319,56.472-294.419,233.762-355.564,321.2-63.828,86.7-163.248,269.306-346.052,494.607-174.626,212.92-364,335.651-479.506,395.94h26.742C451.7,5576.5,623.485,5459.077,782.7,5269.746Z" transform="translate(541.506 -3517.222)"/>
              <path id="Path_44" data-name="Path 44" class="cls-6" d="M763.4,5327.343c197.084-219.391,298.771-399.181,362.81-484.547,59.176-81.465,170.494-245.973,332.185-302.028,160.98-52.646,274.565,44.345,343.785,98.241,64.864,38.861,109.972,110.282,285.424,225.879V4851.18c-169.869-116.923-213.939-190.249-275.911-230.522-70.14-58.3-184.149-164.423-352.461-110.443-168.735,57.8-284.194,231.431-345.129,316.807-62.482,84.865-162.209,262.325-350.7,477.82A1628.429,1628.429,0,0,1,357.083,5636.1h25.19C495.917,5569.413,633.455,5470.176,763.4,5327.343Z" transform="translate(560.807 -3510.218)"/>
              <path id="Path_45" data-name="Path 45" class="cls-7" d="M744.722,5384.812c203.906-207.937,306.632-381.749,370.258-464.871,59.388-79.475,167.389-239.825,325.362-296.79,157.04-53.819,277.458,36.947,353.085,86.939,63.413,33.886,115.767,94.092,275.5,188.421v-14.533c-155.694-96.243-206.7-158.437-267.732-193.65-76.867-54.474-197.805-153.879-361.677-98.658-164.392,58.794-276.324,228.2-337.259,311.407-62.068,82.714-162.633,254.442-357.535,459.224-113.956,118.259-232.615,204.535-335.5,266.568H435.4C532.849,5569.081,640.958,5489.361,744.722,5384.812Z" transform="translate(579.481 -3502.992)"/>
              <path id="Path_46" data-name="Path 46" class="cls-7" d="M850.873,5095.64c175.557-256.1,282.224-453.91,352.884-545.339,63.307-88.437,196.447-263.41,383.394-313.817,186.84-47,282.532,70.585,330.224,137.768,62.588,56.218,69.928,168.745,257.7,366.213v-12.288c-177.729-195.733-184.255-309.5-242.7-366.88-46.866-72-142.357-199.551-338.815-151.719-196.448,51.9-335.288,236.343-400.365,328.512-68.891,90.852-173.587,285-342.322,534.879-170.282,249.128-355.052,391.545-459.8,454.487-56.487,34.55-151.973,89.271-278.239,135.359h37.295c96.264-37.865,171.009-78.725,218.391-106.124C478.441,5494.072,673.345,5351.076,850.873,5095.64Z" transform="translate(473.33 -3536.936)"/>
              <path id="Path_47" data-name="Path 47" class="cls-3" d="M825,5153.8c179.7-247.8,283.983-442.2,352.672-532.721,61.348-86.939,188.078-260.085,367.566-312.237,179.086-48.58,277.882,64.524,330.437,128.714,63.72,52.321,82.036,155.537,273.528,333.329v-12.449c-182.285-176.881-199.669-281.849-259.672-335.166-52.343-68.92-150.937-191.74-339.016-142.164-188.492,53.645-320.287,236.17-383.606,326.937C1099.975,4697.65,997.451,4889.311,825,5131.3c-174.478,241.822-365.4,379.256-472.989,440.21-38.8,22.253-95.229,53.478-166.922,84.949h30.519c46.3-21.174,84.78-41.191,113.281-56.634C441.754,5539.362,642.966,5401.35,825,5153.8Z" transform="translate(499.206 -3530.576)"/>
              <path id="Path_48" data-name="Path 48" class="cls-4" d="M803.24,5211.915c185.282-239.58,287.5-429.5,354.229-518.511,60.2-85.375,180.834-256.11,353.288-309.588,172.04-50.155,275.19,57.969,333.02,118.922,64.547,48.164,92.281,141.082,283.666,298.864v-12.534c-183.323-157.782-209.9-252.537-271.25-301.866-57.936-65.682-160.874-183.27-341.507-132.116-180.832,55.057-306.218,235.179-368.5,324.448-64.864,88.352-165.419,275.447-342.947,509.795C623.752,5423.422,427.032,5554.963,316.8,5613.672c-19.139,10.213-43.813,22.925-70.969,36.207H274.9c6-2.992,13.034-6.395,18.362-9.048C408.565,5582.862,615.785,5451.16,803.24,5211.915Z" transform="translate(520.963 -3524)"/>
              <path id="Path_49" data-name="Path 49" class="cls-4" d="M-18.947,5638.215c284.238-28.07,488.61-158.778,581.666-222.97,100.609-67.263,275.752-222.554,442.729-495.849,165.218-273.371,283.983-478.484,363.021-571.992,69.516-90.185,225.009-268.185,439.573-313.318,214.045-41.562,304.249,87.775,339.431,162.016,56.378,64.938,38.168,198.968,182.178,441.036v-14.779c-131.594-236.091-113.077-369.956-164.8-435.476-33.2-79.513-122.378-218.9-347.81-176.8-225.528,46.3-387.218,233.515-458.915,327.683-76.761,92.512-193.663,293.637-352.672,559.125C844.732,5162.3,679.1,5315.762,583.254,5383.271c-93.366,67.765-299.963,207.188-590.976,237.418-138.007,12.373-238.512-8.554-311.033-41.276v22.509C-246.854,5631.073-149.764,5649.423-18.947,5638.215Z" transform="translate(318.755 -3554.683)"/>
              <path id="Path_50" data-name="Path 50" class="cls-5" d="M1005.448,4978.309c168.111-268.559,282.224-471.766,358.159-564.854,67.132-89.685,214.976-267.312,419.709-314.355,204.626-43.514,295.975,82.419,334.874,154.418,58.657,62.529,47.9,190.83,211.46,421.021v-13.2c-151.764-225.964-140.493-354.842-194.7-418.286-37.448-77.313-127.865-213.086-343.255-168.909-215.6,48.289-369.124,235.093-438.438,328.68-73.868,92.424-186.107,291.892-347.809,553.061-163.46,260.921-335.5,411.145-434.4,477.412-96.366,66.269-310.153,203.371-610.789,230.769-117.471,9.142-208.613-4.311-279.013-28.062v20.6c25.4,7.635,53.9,13.7,84.625,18.264H-7.258c270.117-33.47,465.955-150.886,557.1-210.427C653.654,5398.415,835.526,5246.62,1005.448,4978.309Z" transform="translate(318.755 -3548.986)"/>
              <path id="Path_51" data-name="Path 51" class="cls-6" d="M884.1,5037c171.426-262.665,281.6-463.458,354.844-555.883,65.172-89.44,205.463-265.739,400.884-314.568,195.314-45.341,288.633,76.482,331.665,146.32,60.733,59.625,58.763,180.536,236.81,395.531v-12.458c-167.072-212.087-164.392-334.078-220.878-394.7-42.1-74.9-134.687-206.692-340.15-160.6-205.665,49.992-351.741,235.924-418.67,329.1-71.5,91.761-179.7,289.153-344.5,544.838-166.659,255.683-345.068,402.088-446.919,466.773-75,48.751-218.855,136.694-417.124,187.6h48.83C229.6,5620.786,349.351,5552.2,415.3,5511.584,522.221,5447.144,710.5,5299.5,884.1,5037Z" transform="translate(440.102 -3543.071)"/>
              <path id="Path_52" data-name="Path 52" class="cls-6" d="M76.747,5493.371C331.81,5457.5,513.993,5322.8,597.893,5255.707c91.4-69.764,246.426-232.189,407.555-514.446,160.144-282.759,295.88-489.538,384.326-582.3,78.52-90.434,258.951-266.4,502.679-304.931,243.95-35.167,335.5,101.851,361.676,181.7,45.415,63.776,22.767,191.33,75.523,414.633v-41.109c-37.66-200.381-17.067-318.467-56.179-379.752-23.687-84.828-113.9-231.979-370.459-196.519-256.048,39.279-443.3,224.09-523.791,318.093-85.967,91.678-218.905,293.887-373.774,567.675-155.641,273.124-302.5,432.82-389.295,502.489C531.891,5291.829,348.209,5435,87.506,5473.193c-238.046,31.3-358.983-59.049-406.261-127.885v39.03C-264.752,5447.283-143.609,5521.356,76.747,5493.371Z" transform="translate(318.755 -3570.446)"/>
              <path id="Path_53" data-name="Path 53" class="cls-7" d="M44.936,5544.637c265.409-33.384,455.089-167.417,541.836-233.685,94.609-69.337,256.308-230.1,418.676-510.042,160.768-280.181,290.806-487.207,376.158-580.713,75.11-90.308,247.044-267.562,481.163-308.5,234.109-37.452,324.324,97.449,353.085,175.593,50.277,66.391,25.658,203.578,113.8,447.717V4510.1c-73.764-230.692-50.076-364.39-94.865-430.076-26.591-83.25-115.461-228.2-361.88-190.459-246.015,41.813-424.369,228.034-501.85,322.079-82.874,92.426-210.326,295.463-365.607,566.684-156.627,271.211-309.74,429.572-399.64,498.918C518.7,5347,327.414,5489.5,56.057,5525.291c-192.838,22.586-309.74-29.32-374.812-86.531v30.722C-251.51,5520.8-136.782,5565.063,44.936,5544.637Z" transform="translate(318.755 -3565.409)"/>
              <path id="Path_54" data-name="Path 54" class="cls-3" d="M13.02,5592.865c274.928-30.722,472.161-163.343,562.01-228.863,97.557-68.342,265.878-226.457,430.418-503.731,162.834-277.367,286.875-483.807,368.912-577.312,72.418-90.35,235.878-268.144,460.06-311.242,224.182-39.529,314.079,92.674,345.84,168.907,53.7,66.517,29.8,203.952,149.391,452.909v-19.848c-104.9-238.411-82.663-374.765-131.382-441.2-29.695-81.464-118.151-223.922-354.018-183.937-235.771,44.053-405.852,231.106-480.23,325.358-79.865,92.592-201.532,294.8-358.572,563.77-158.491,268.976-317.809,425.015-410.607,493.6-90.211,68.93-289.2,210.02-570.6,243.15-162.318,16.692-271.565-15.859-343-59.874v26.157C-246.907,5579.992-140.556,5608.146,13.02,5592.865Z" transform="translate(318.755 -3560.159)"/>
              <path id="Path_55" data-name="Path 55" class="cls-5" d="M107.627,5439.311C352.71,5401.274,527.39,5266,608.342,5198.321c88.143-69.925,236.75-233.26,397.106-516.937,159.318-283.671,301.568-489.865,393.743-582.125,81.625-89.769,270.223-264.032,524.1-300.238,253.865-32.761,346.879,106,371.286,187.051,31.145,46.172,27.321,126.39,35.076,250.207V4023.856c-3.518-16.317-8.073-31.017-15.213-42.974-21.622-86.074-113.479-235.01-380.4-202.043-266.386,36.747-462.23,219.772-545.815,313.029-89.483,91.263-228.525,292.805-382.779,567.014-155.229,274.2-295.877,434.64-379.725,504.4-81.262,71-257.185,214.246-507.386,254.859-251.6,36.948-370.623-72.663-408.021-140.257-13.448-13.376-22.139-31.812-29.07-53.98v56.719A106.354,106.354,0,0,0-297.7,5308.1C-258.96,5372.047-138.539,5474.354,107.627,5439.311Z" transform="translate(318.755 -3575.262)"/>
            </g>
            <rect id="Rectangle_17" data-name="Rectangle 17" class="cls-8" width="3885.975" height="3119.278" transform="translate(-669.813 -282.823)"/>
          </g>
        </g>
        <g id="Group_2586" data-name="Group 2586" class="cls-2" transform="translate(-556.96 2047.774)">
          <path id="Path_12-2" data-name="Path 12" class="cls-3" d="M166.6,5322.386c225.373-42.679,384.692-176.959,460.006-244.553,82.091-69.925,218.343-233.438,378.847-516.69,159.943-283.341,315.944-486.462,414.74-576.439,87.737-87.486,292.574-257.306,566.208-288.364,184.456-18.643,287.807,39.4,343.255,104.468v-33.923c-59.9-58.627-162.009-105.173-331.984-88.9-286.874,31.39-498.948,209.225-588.962,300.238-96.105,88.939-248.176,287.2-403.257,560.332C849.806,4811.682,720.33,4972.118,642.223,5041.37c-75.676,70.673-236.131,212.758-465.953,257.929-230.959,41.608-346.932-59.534-387.536-122.978-54.417-46.923-49.452-149.892-107.488-358.832v41.276c48.623,204.7,45.106,303.023,101.228,348.7C-176.352,5267.41-59.863,5361.918,166.6,5322.386Z" transform="translate(318.755 -3584.232)"/>
          <path id="Path_13-2" data-name="Path 13" class="cls-4" d="M137.68,5382.375c235.408-40.613,402.279-175.641,480.231-243.236,85.038-70.085,227.393-233.846,387.536-517.771,159.318-284,308.391-488.948,403.882-580.211,84.527-88.565,281.186-261,545.2-294.716,244.765-28.028,343.466,89.727,375.12,172.312v-51.361c-45.828-79.6-149.9-163.551-363.944-140.217-277.162,34.172-480.856,214.954-567.554,307.048-92.895,90.31-238.251,290.606-392.705,564.73-155.08,274.12-290.083,434.726-370.931,504.31-78.418,70.919-246.375,213.923-486.49,256.849-241.46,39.362-358.621-66.183-397.312-131.864-43.761-40.442-46.5-120.494-69.469-268.149v92.764c14.018,109.866,22.811,171.975,62.072,206.109C-216.854,5320.919-98.813,5419.653,137.68,5382.375Z" transform="translate(318.755 -3579.858)"/>
          <path id="Path_14-2" data-name="Path 14" class="cls-5" d="M276.293,5120.768c196.562-48.24,335.4-177.458,403.677-243.4,74.275-67.424,195.063-227.121,359.6-502.568,164.8-275.949,342.322-469.769,451.267-554.471,75.415-63.777,227.7-171.773,430.26-228.616h-44.387c-187.243,61.535-327.427,162.182-398.7,223.218-105.322,83.458-277.882,272.13-438.438,537.282-160.144,264.659-275.657,420.357-346.621,487.212-68.952,68.589-208.871,204.7-409.158,255.352-201.423,47.748-316.153-37.373-364.467-92.509-64.606-43.437-65.123-146.235-203.958-368.959v17.355c136.248,235.183,134.179,340.141,202.2,383.654C-35,5086.729,78.75,5166.279,276.293,5120.768Z" transform="translate(330.977 -3591.717)"/>
          <path id="Path_15-2" data-name="Path 15" class="cls-6" d="M219.2,5193.1c205.871-46.5,351.069-178.038,421.364-244.638,76.814-68.674,202.3-230.275,364.881-509.05,162.315-278.814,332.6-476.746,438.438-563.649,94.654-84.453,314.6-247.466,606.75-272.834,125.185-9.509,214.35,11.916,279.015,45.215v-24c-33.826-15.239-75.83-25.785-123.32-32.429H2024.872c-286.77,35.542-500.506,194.36-593.3,278.482-102.525,85.45-268.357,278.523-426.128,546.625-157.972,268.224-277.72,426.168-350.914,494.264-70.917,69.423-217.1,207.936-427.107,257.019-210.993,45.833-325.568-44.924-371.036-103.053-62.33-46.09-58.709-153.379-175.146-382.83v19.686c112.35,240.735,105.729,348.773,171.63,394.777C-102.124,5151.833,12.141,5236.867,219.2,5193.1Z" transform="translate(318.755 -3591.717)"/>
          <path id="Path_16-2" data-name="Path 16" class="cls-7" d="M193.856,5259.449c215.494-44.593,367.622-177.8,440.349-245.062,79.3-69.339,209.859-232.019,371.242-513.7,160.768-281.678,324.017-482.432,426.329-570.955,91.148-86.115,303.635-252.78,586.792-281.014,150.111-13.287,247.976,20.677,311.082,67.6v-26.781c-64.559-41.729-159.625-69.922-299.917-58.255-296.494,28.484-516.332,203-609.853,292.476-99.421,87.359-258.22,283.132-414.433,554.433C848.82,4749.569,724.52,4908.679,648.948,4977.6c-73.142,70.256-226.356,210.683-446.04,257.843-220.872,43.853-335.964-52.313-378.847-113.182-59.226-47.586-53.484-155.955-142.816-383.236v25.655c82.866,234.595,75.521,341.723,137.851,388.968C-137.97,5211.2-22.724,5301.133,193.856,5259.449Z" transform="translate(318.755 -3588.387)"/>
          <path id="Path_17-2" data-name="Path 17" class="cls-7" d="M-49.984,4834.191c55.658,42.441,169.819,103.8,343.827,53.318,173.285-52.9,295.723-172.809,358.932-234.264,68.744-62.7,178.768-212.838,352.672-472.427,174.626-259.632,373.361-439,491.5-515.983,29.281-20.636,69.738-46.42,118.458-73.119h-24.725a1250.1,1250.1,0,0,0-107.8,68.427c-114.412,75.693-306.939,249.75-477.434,498.128-169.816,248.421-276.118,394.164-342.12,455.856-64.556,63.778-188.492,189.341-365.5,244.647-177.733,52.73-294.377-12.619-352.414-57.3-67.916-32.892-85.659-112.11-264.167-290.148v13.945C-134.609,4718.263-121.47,4800.645-49.984,4834.191Z" transform="translate(318.755 -3591.717)"/>
          <path id="Path_18-2" data-name="Path 18" class="cls-3" d="M-33.445,4903.122c52.657,45.918,166.3,113.844,347.448,64.855,180.422-51.4,307.567-175.053,372.121-238.166,70.292-64.525,183.167-218.4,353.449-484.386,170.907-265.9,362.609-450.669,477.645-530.515,44.694-33.507,115.45-79.763,205.25-123.194h-27.521c-83.276,42.227-148.766,86.074-191.183,118.253-111.731,78.557-297.628,258.177-464.192,512.95-166.1,254.855-274.766,404.33-342.12,468.105-65.642,65.6-194.13,195.156-378.174,249.213-184.87,51.072-300.377-21.258-354.947-69.67-67.348-36.956-77.952-124.653-248.961-321.041v14.779C-111.295,4774.82-104.311,4865.748-33.445,4903.122Z" transform="translate(330.977 -3591.717)"/>
          <path id="Path_19-2" data-name="Path 19" class="cls-4" d="M-89.916,4969.883c49.916,49.329,163.559,123.155,352.568,75.655,187.976-49.746,320.757-176.3,387.072-240.989,72.055-66.1,188.547-223.132,355.724-494.434,167.59-271.257,352.26-460.926,464.192-543.385,59.388-47.376,165.218-119.291,303.74-175.013h-31.865c-129.413,56.054-228.315,124.231-284.8,169.905-108.945,81.216-288.02,265.735-451.267,525.988-162.887,260.251-274.668,413.222-343.517,478.571-67.348,67.347-201.217,200.215-392.916,252.613-192.734,49.5-307.67-29.226-359.034-81.292-66.418-40.443-70.867-136.022-228.736-348.033v15.7C-160.936,4830.7-159.8,4929.031-89.916,4969.883Z" transform="translate(318.755 -3591.717)"/>
          <path id="Path_20-2" data-name="Path 20" class="cls-4" d="M-31.827,4614.461c65.538,30.731,184.043,69.924,342.637,15.365,158.18-56.054,271.928-161.762,333.74-217.071,66.676-55.556,172.818-190.583,360.9-425.757,142.865-177.294,301.674-311.324,425.2-395.281h-20.69c-118.15,81.548-268.05,207.9-404.506,372.735C821.4,4188.292,717.381,4318.668,652.672,4372.978c-63.78,56.885-180.164,166.669-342.637,225.292-162.992,56.8-285.79,15.2-354.846-16.853-65.589-20.18-103.971-70.588-273.945-184.938v14.367C-136.057,4539.23-101.3,4593.458-31.827,4614.461Z" transform="translate(318.755 -3591.717)"/>
          <path id="Path_21-2" data-name="Path 21" class="cls-5" d="M2.5,4689.869c62.02,34.873,178.663,81.881,341.344,28.564,162.112-55.308,277.617-166.083,339.535-223.719,66.877-58.292,173.492-199.132,356.189-443.069,167.8-222.761,358.159-380.291,484.266-459.929h-21.834c-122.071,79.306-302.289,229.861-462.433,437.383-178.609,232.685-282.691,368.79-347.4,426-63.469,59.542-181.251,174.968-347.346,232.681-166.766,55.563-286.979,5.732-352.205-30.808-67.193-24.66-98.85-84.865-277.256-221.553v14.279C-96.345,4600.516-68.257,4664.538,2.5,4689.869Z" transform="translate(330.977 -3591.717)"/>
          <path id="Path_22-2" data-name="Path 22" class="cls-6" d="M-37.878,4763.2c58.709,38.776,174.008,93.088,341.86,41.106,167.078-54.064,285.687-169.662,347.915-229.365,67.554-60.621,175.356-206.277,353.551-458.767,179.075-252.406,384.326-425.674,505.368-499.582,11.485-7.557,25.351-16.151,39.832-24.872H1528.4c-11.165,6.976-22.86,14.118-32.172,20.3-117.007,72.578-315.838,240.572-490.781,481.6-174.01,241.155-278.755,382.323-343.878,441.865-63.779,61.7-184.1,182.527-355.053,239.162-171.68,54.149-289.979-3.734-351.43-44.423-67.865-28.818-93.056-98.819-273.841-256.516v14.031C-130.161,4660.056-109.262,4733.629-37.878,4763.2Z" transform="translate(318.755 -3591.717)"/>
          <path id="Path_23-2" data-name="Path 23" class="cls-6" d="M281.222,4348.065c156.319-58.628,271.67-145.656,336.38-191.869,69.157-46.047,180.475-160.728,387.846-363.143,80.077-77.437,163.661-144.618,243.939-201.336h-23.273c-72.726,51.487-148.047,110.987-220.666,178.79-203.186,191.33-313.723,300.779-381.692,345.5-67.554,47.334-187.095,136.728-349.568,197.681-162.577,59.791-294.688,45.674-374.863,28.733-55.089-7.64-102.212-28.733-218.08-77.977V4281.8C-185.094,4342.335-137.3,4367-77.243,4375.3-1.722,4391.745,124.7,4405.7,281.222,4348.065Z" transform="translate(318.755 -3591.717)"/>
          <path id="Path_24-2" data-name="Path 24" class="cls-7" d="M297.051,4444.56c155.231-57.963,268.617-151.635,331.878-201.128,67.659-49.493,176.076-171.441,376.519-385.731,100.968-107,208.662-196.146,307.257-265.985h-21.516c-92.08,65.438-191.5,146.777-285.741,243.439-196.353,203.08-303.583,320.086-369.793,368.333-65.694,50.739-182.751,147.317-343.414,207.688-160.974,58.962-289.411,35.3-365.966,13.121-60.056-11.792-106.2-42.186-245.029-112.523V4327.8c155.076,82.627,200.287,116.842,264.686,129.3C18.09,4478.607,141.509,4501.193,297.051,4444.56Z" transform="translate(318.755 -3591.717)"/>
          <path id="Path_25-2" data-name="Path 25" class="cls-3" d="M306.724,4538.566c155.749-56.973,268.72-156.952,331.1-209.434,66.779-52.815,173.6-181.531,367.622-406.783,121.455-139.884,253.771-251.2,367.259-330.633h-20.689c-107.695,75.943-231.63,179.5-346.57,308.086-190,213.917-295,337.815-360.121,389.3-64.607,54.144-180.63,157.445-341.346,216.987-161.025,57.884-286.411,25.161-359.242-2.075-63.416-16.029-106.556-56.387-263.495-148.562v15.031c171.888,105.631,212.131,149.645,279.634,166.584C29.779,4563.141,150.561,4594.205,306.724,4538.566Z" transform="translate(318.755 -3591.717)"/>
          <path id="Path_26-2" data-name="Path 26" class="cls-3" d="M-203.094,4116.418c85.244.5,223.614-15.03,395.088-74.53,171.733-59.708,303.171-123.234,376.519-158.695,78-34.129,205.718-122.777,436.935-283.962,3.825-2.615,7.659-4.941,11.483-7.516H982.586C770.5,3732.224,647.862,3811.862,573.272,3843.128c-77.229,35.541-215.391,99.651-396.124,161.6-180.63,61.7-325.826,78.972-416.089,79.264a605.923,605.923,0,0,1-79.814-2.533v26.823C-270.856,4115.547-236.975,4117.416-203.094,4116.418Z" transform="translate(318.755 -3591.717)"/>
          <path id="Path_27-2" data-name="Path 27" class="cls-4" d="M229.186,4146.6c164.44-59.5,288.634-131.372,358.363-170.61,74.382-38.407,195.263-136.563,417.9-312.238,32.586-25.453,65.49-49.2,98.383-72.04h-28.858c-23.284,15.987-46.506,32.262-69.525,49.494-218.24,164.8-339.224,257.887-412.727,294.634-73.245,39.694-203.13,112.771-375.536,174.554-172.353,61.285-312.689,67.513-399.847,61.783-38.383-.83-76.35-6.145-136.094-19.971v22.213c78.625,21.425,121.868,29.148,167.594,30.477C-69.02,4210.963,64.849,4205.648,229.186,4146.6Z" transform="translate(318.755 -3591.717)"/>
          <path id="Path_28-2" data-name="Path 28" class="cls-5" d="M258.773,4248.747c159.266-59.126,278.186-138.931,345.173-181.738,71.279-42.311,186.685-148.978,401.5-338.6a2089.379,2089.379,0,0,1,175.039-136.688h-25.753c-49.759,34.878-99.994,72.7-149.285,114.142-210.633,178.54-325.619,280.184-395.864,320.958-70.09,43.638-194.079,125.144-360.277,186.554-166.3,60.62-302.394,56.469-386.088,45.008-48.1-3.819-93.21-16.442-181.973-46.336v19.265c107.746,39.695,155.336,55.389,209.389,59.875C-30.637,4302.475,99.4,4307.043,258.773,4248.747Z" transform="translate(318.755 -3591.717)"/>
          <path id="Path_29-2" data-name="Path 29" class="cls-5" d="M493.4,3594.042c3-.622,6.621-1.619,9.726-2.325H326.9c-88.815,19.764-197.544,45.341-322.1,79.8-129.678,36.414-235.976,68.344-323.55,93.423v46.67c89.487-24.124,204.578-58.711,347.965-100.066C239.531,3651.591,404.746,3615.841,493.4,3594.042Z" transform="translate(318.755 -3591.717)"/>
          <path id="Path_30-2" data-name="Path 30" class="cls-6" d="M521.545,3692.281c54.572-15.363,131.436-47.625,241.456-100.564H692.345c-70.916,29.938-125.539,49.95-166.507,60.746-87.316,26.2-247.719,70.795-454.264,132.826-164.388,49.908-295.05,84.745-390.33,103.844v40.233c91.556-14.075,230.39-48.911,411.33-105.09C287.172,3764.237,438.834,3718.813,521.545,3692.281Z" transform="translate(318.755 -3591.717)"/>
          <path id="Path_31-2" data-name="Path 31" class="cls-7" d="M146.681,3934.391c181.613-59.79,322.206-114.6,399.848-145.823,70.917-25.41,181.82-87.485,364.16-196.851H864.955c-151.815,85.078-249.837,135.192-313.926,156.908-81.936,31.017-230.237,85.659-422.245,147.733C-62.966,3958.432-213.44,3987-306.5,3993.559c-4.034.373-8.172.705-12.259,1v33.758c18.776-.167,36-1.038,52.71-2.491C-177.9,4020.382-34.827,3994.347,146.681,3934.391Z" transform="translate(318.755 -3591.717)"/>
          <path id="Path_32-2" data-name="Path 32" class="cls-4" d="M-26.966,3591.717H-205.423c-40.139,11.627-78.365,23.086-113.332,34.048v50.821c77.072-24.414,168.06-52.357,274.617-80.592C-38.241,3594.458-32.81,3593.213-26.966,3591.717Z" transform="translate(318.755 -3591.717)"/>
          <path id="Path_33-2" data-name="Path 33" class="cls-3" d="M1422.235,5545.579H1675.7c10.139-1.164,20.382-2.406,30.415-3.4v-43.189c-88.043,6.566-181.247,19.185-273.74,43.522C1428.856,5543.5,1425.647,5544.584,1422.235,5545.579Z" transform="translate(942.293 -3419.7)"/>
          <path id="Path_34-2" data-name="Path 34" class="cls-4" d="M1423.948,5230.86c-185.177,63.284-309.525,189.009-388.468,248.635-29.377,23.751-70.034,56.216-123.523,93.088h53.594c37.649-26.241,68.487-49.745,91.868-67.85,77.894-56.463,201.32-174.713,384.632-235.75,159.731-51.157,325.776-30.061,446.818-13.122v-30.23C1764.416,5205.453,1590.924,5176.388,1423.948,5230.86Z" transform="translate(759.536 -3446.704)"/>
          <path id="Path_35-2" data-name="Path 35" class="cls-5" d="M1436.849,5332.3c-193.356,61.871-324.738,174.977-409.264,231.525h64.356c83.583-56.965,202.456-141.507,366.116-192.494,135.006-40.6,273.634-40.273,389.4-32.883v-34.21C1726.627,5293.273,1579.513,5288.452,1436.849,5332.3Z" transform="translate(800.948 -3437.942)"/>
          <path id="Path_36-2" data-name="Path 36" class="cls-7" d="M1448.393,5436.292c-109.241,32.466-200.178,76.565-275.392,118.667h93.828c60-28.487,128.394-56.217,205.983-78.555,109.866-30.562,221.385-40.613,322.565-42.773v-38.614C1687.375,5394.522,1566.851,5402.491,1448.393,5436.292Z" transform="translate(853.029 -3429.079)"/>
          <path id="Path_37-2" data-name="Path 37" class="cls-6" d="M1406.783,4942.093c-163.968,62.117-273.221,209.765-340.364,280.929-64.864,71.336-181.033,213.831-406.773,366.716-4.29,2.906-8.592,5.313-12.882,8.136h34.091c221.9-147.4,337.778-284.084,402.748-353.345,65.278-67.757,172.655-207.1,332.6-267.232,159.318-57.3,314.4,4.65,416.3,36.872,41.273,12.211,86.9,29.32,151.351,51.4v-21.088c-65.9-24.253-111.424-43.02-152.7-56.3C1726.869,4952.476,1570.041,4883.052,1406.783,4942.093Z" transform="translate(664.557 -3471.996)"/>
          <path id="Path_38-2" data-name="Path 38" class="cls-7" d="M1409.035,5035.666c-168.535,62.7-281.186,203.7-351.338,271.21-58.032,58.632-158.067,166.082-334.875,282.758h39.313c162.94-107.374,258.019-205.359,314.185-259.917,68.7-64.278,179.594-196.976,345.025-257.6,164.794-57.883,330.637-4.233,439.571,22.917,28.031,6.812,58.858,15.367,95.693,25.494v-23.665c-39.006-11.794-70.862-21.591-99.941-29.312C1745.149,5036.991,1577.039,4976.124,1409.035,5035.666Z" transform="translate(691.797 -3463.756)"/>
          <path id="Path_39-2" data-name="Path 39" class="cls-3" d="M1414.977,5132.024c-175.557,62.944-293.3,196.474-367.365,260.25-46.761,42.517-121.457,111.779-237.118,188.922H857.16c100.246-67.016,167.284-126.642,210.633-164.669,73.138-60.708,189.212-186.431,361.973-247.3,172.463-58.376,350.606-13.036,466.374,8.8,9.312,1.743,19.036,3.734,29.069,5.732v-27.076c-12.723-2.822-24.831-5.646-36.316-8.052C1770.34,5123.631,1589.921,5071.981,1414.977,5132.024Z" transform="translate(723.197 -3455.318)"/>
          <path id="Path_40-2" data-name="Path 40" class="cls-3" d="M1797.7,4761.948c-83.382-50.162-212.074-142.672-373.149-86.447-161.7,59.789-271.049,224.545-332.609,305.259-61.866,80.223-164.18,245.063-366.327,438.543-88.192,83.547-178.662,149.483-263.029,202.128h27.257A1673.876,1673.876,0,0,0,725.611,5442.06c211.459-195.726,316.569-362.812,379.982-443.28,60-77.229,166.045-232.844,321.633-290.812,155.081-54.8,282.638,29.066,364.675,75.154,60.935,28.733,117.632,77.646,257.913,151.549v-15.688C1911.906,4842.833,1856.565,4791.922,1797.7,4761.948Z" transform="translate(598.592 -3495.553)"/>
          <path id="Path_41-2" data-name="Path 41" class="cls-4" d="M1414.138,4761.781c-160.662,60.953-268.463,220.393-331.369,298.2-62.067,77.646-168.312,236.007-377.292,416.374C643.144,5529.588,580.145,5574.6,518.8,5613.79h28.656a1687.781,1687.781,0,0,0,158.025-114.934c218.907-182.025,327.84-341.883,391.986-419.775,61.242-74.073,166.149-224.961,321.431-283.839,154.869-55.8,290.594,21.428,379.05,62.952,56.7,23.248,114.316,61.029,231.736,115.588v-17.024c-116.286-57.05-172.867-96.821-228.218-121.319C1711.247,4789.842,1574.281,4704.561,1414.138,4761.781Z" transform="translate(618.725 -3487.911)"/>
          <path id="Path_42-2" data-name="Path 42" class="cls-5" d="M1408.208,4850.667c-161.075,61.617-269.088,215.412-333.54,290.064-63.414,74.491-173.8,225.292-390.947,392.455-34.758,26.5-69.516,50.247-104.178,72.747h30.88c24.418-15.944,48.88-32.39,73.3-50.238,227.5-168.081,341.4-319.877,406.572-394.7,63.106-71.006,168.323-216.406,325.151-276.034,156.012-56.557,300.943,13.368,396.021,50.153,50.489,17.772,104.591,44.849,196.459,82.051v-18.938c-91.974-39.608-145.451-68.428-195.219-87.356C1715.465,4870.1,1568.967,4792.538,1408.208,4850.667Z" transform="translate(640.482 -3480.053)"/>
          <path id="Path_43-2" data-name="Path 43" class="cls-5" d="M782.7,5269.746c190.77-229.943,292.363-415.21,357.535-502.489,59.377-83.539,175.039-251.288,341.4-306.178,166.138-51.318,273.94,51.319,337.46,108.7,65.076,43.6,102.524,126.14,287.807,262.75v-12.874c-178.768-137.435-214.871-221.722-276.843-266.568-63.934-62.195-172.041-174.381-345.745-121.736-174.319,56.472-294.419,233.762-355.564,321.2-63.828,86.7-163.248,269.306-346.052,494.607-174.626,212.92-364,335.651-479.506,395.94h26.742C451.7,5576.5,623.485,5459.077,782.7,5269.746Z" transform="translate(541.506 -3517.222)"/>
          <path id="Path_44-2" data-name="Path 44" class="cls-6" d="M763.4,5327.343c197.084-219.391,298.771-399.181,362.81-484.547,59.176-81.465,170.494-245.973,332.185-302.028,160.98-52.646,274.565,44.345,343.785,98.241,64.864,38.861,109.972,110.282,285.424,225.879V4851.18c-169.869-116.923-213.939-190.249-275.911-230.522-70.14-58.3-184.149-164.423-352.461-110.443-168.735,57.8-284.194,231.431-345.129,316.807-62.482,84.865-162.209,262.325-350.7,477.82A1628.429,1628.429,0,0,1,357.083,5636.1h25.19C495.917,5569.413,633.455,5470.176,763.4,5327.343Z" transform="translate(560.807 -3510.218)"/>
          <path id="Path_45-2" data-name="Path 45" class="cls-7" d="M744.722,5384.812c203.906-207.937,306.632-381.749,370.258-464.871,59.388-79.475,167.389-239.825,325.362-296.79,157.04-53.819,277.458,36.947,353.085,86.939,63.413,33.886,115.767,94.092,275.5,188.421v-14.533c-155.694-96.243-206.7-158.437-267.732-193.65-76.867-54.474-197.805-153.879-361.677-98.658-164.392,58.794-276.324,228.2-337.259,311.407-62.068,82.714-162.633,254.442-357.535,459.224-113.956,118.259-232.615,204.535-335.5,266.568H435.4C532.849,5569.081,640.958,5489.361,744.722,5384.812Z" transform="translate(579.481 -3502.992)"/>
          <path id="Path_46-2" data-name="Path 46" class="cls-7" d="M850.873,5095.64c175.557-256.1,282.224-453.91,352.884-545.339,63.307-88.437,196.447-263.41,383.394-313.817,186.84-47,282.532,70.585,330.224,137.768,62.588,56.218,69.928,168.745,257.7,366.213v-12.288c-177.729-195.733-184.255-309.5-242.7-366.88-46.866-72-142.357-199.551-338.815-151.719-196.448,51.9-335.288,236.343-400.365,328.512-68.891,90.852-173.587,285-342.322,534.879-170.282,249.128-355.052,391.545-459.8,454.487-56.487,34.55-151.973,89.271-278.239,135.359h37.295c96.264-37.865,171.009-78.725,218.391-106.124C478.441,5494.072,673.345,5351.076,850.873,5095.64Z" transform="translate(473.33 -3536.936)"/>
          <path id="Path_47-2" data-name="Path 47" class="cls-3" d="M825,5153.8c179.7-247.8,283.983-442.2,352.672-532.721,61.348-86.939,188.078-260.085,367.566-312.237,179.086-48.58,277.882,64.524,330.437,128.714,63.72,52.321,82.036,155.537,273.528,333.329v-12.449c-182.285-176.881-199.669-281.849-259.672-335.166-52.343-68.92-150.937-191.74-339.016-142.164-188.492,53.645-320.287,236.17-383.606,326.937C1099.975,4697.65,997.451,4889.311,825,5131.3c-174.478,241.822-365.4,379.256-472.989,440.21-38.8,22.253-95.229,53.478-166.922,84.949h30.519c46.3-21.174,84.78-41.191,113.281-56.634C441.754,5539.362,642.966,5401.35,825,5153.8Z" transform="translate(499.206 -3530.576)"/>
          <path id="Path_48-2" data-name="Path 48" class="cls-4" d="M803.24,5211.915c185.282-239.58,287.5-429.5,354.229-518.511,60.2-85.375,180.834-256.11,353.288-309.588,172.04-50.155,275.19,57.969,333.02,118.922,64.547,48.164,92.281,141.082,283.666,298.864v-12.534c-183.323-157.782-209.9-252.537-271.25-301.866-57.936-65.682-160.874-183.27-341.507-132.116-180.832,55.057-306.218,235.179-368.5,324.448-64.864,88.352-165.419,275.447-342.947,509.795C623.752,5423.422,427.032,5554.963,316.8,5613.672c-19.139,10.213-43.813,22.925-70.969,36.207H274.9c6-2.992,13.034-6.395,18.362-9.048C408.565,5582.862,615.785,5451.16,803.24,5211.915Z" transform="translate(520.963 -3524)"/>
          <path id="Path_49-2" data-name="Path 49" class="cls-4" d="M-18.947,5638.215c284.238-28.07,488.61-158.778,581.666-222.97,100.609-67.263,275.752-222.554,442.729-495.849,165.218-273.371,283.983-478.484,363.021-571.992,69.516-90.185,225.009-268.185,439.573-313.318,214.045-41.562,304.249,87.775,339.431,162.016,56.378,64.938,38.168,198.968,182.178,441.036v-14.779c-131.594-236.091-113.077-369.956-164.8-435.476-33.2-79.513-122.378-218.9-347.81-176.8-225.528,46.3-387.218,233.515-458.915,327.683-76.761,92.512-193.663,293.637-352.672,559.125C844.732,5162.3,679.1,5315.762,583.254,5383.271c-93.366,67.765-299.963,207.188-590.976,237.418-138.007,12.373-238.512-8.554-311.033-41.276v22.509C-246.854,5631.073-149.764,5649.423-18.947,5638.215Z" transform="translate(318.755 -3554.683)"/>
          <path id="Path_50-2" data-name="Path 50" class="cls-5" d="M1005.448,4978.309c168.111-268.559,282.224-471.766,358.159-564.854,67.132-89.685,214.976-267.312,419.709-314.355,204.626-43.514,295.975,82.419,334.874,154.418,58.657,62.529,47.9,190.83,211.46,421.021v-13.2c-151.764-225.964-140.493-354.842-194.7-418.286-37.448-77.313-127.865-213.086-343.255-168.909-215.6,48.289-369.124,235.093-438.438,328.68-73.868,92.424-186.107,291.892-347.809,553.061-163.46,260.921-335.5,411.145-434.4,477.412-96.366,66.269-310.153,203.371-610.789,230.769-117.471,9.142-208.613-4.311-279.013-28.062v20.6c25.4,7.635,53.9,13.7,84.625,18.264H-7.258c270.117-33.47,465.955-150.886,557.1-210.427C653.654,5398.415,835.526,5246.62,1005.448,4978.309Z" transform="translate(318.755 -3548.986)"/>
          <path id="Path_51-2" data-name="Path 51" class="cls-6" d="M884.1,5037c171.426-262.665,281.6-463.458,354.844-555.883,65.172-89.44,205.463-265.739,400.884-314.568,195.314-45.341,288.633,76.482,331.665,146.32,60.733,59.625,58.763,180.536,236.81,395.531v-12.458c-167.072-212.087-164.392-334.078-220.878-394.7-42.1-74.9-134.687-206.692-340.15-160.6-205.665,49.992-351.741,235.924-418.67,329.1-71.5,91.761-179.7,289.153-344.5,544.838-166.659,255.683-345.068,402.088-446.919,466.773-75,48.751-218.855,136.694-417.124,187.6h48.83C229.6,5620.786,349.351,5552.2,415.3,5511.584,522.221,5447.144,710.5,5299.5,884.1,5037Z" transform="translate(440.102 -3543.071)"/>
          <path id="Path_52-2" data-name="Path 52" class="cls-6" d="M76.747,5493.371C331.81,5457.5,513.993,5322.8,597.893,5255.707c91.4-69.764,246.426-232.189,407.555-514.446,160.144-282.759,295.88-489.538,384.326-582.3,78.52-90.434,258.951-266.4,502.679-304.931,243.95-35.167,335.5,101.851,361.676,181.7,45.415,63.776,22.767,191.33,75.523,414.633v-41.109c-37.66-200.381-17.067-318.467-56.179-379.752-23.687-84.828-113.9-231.979-370.459-196.519-256.048,39.279-443.3,224.09-523.791,318.093-85.967,91.678-218.905,293.887-373.774,567.675-155.641,273.124-302.5,432.82-389.295,502.489C531.891,5291.829,348.209,5435,87.506,5473.193c-238.046,31.3-358.983-59.049-406.261-127.885v39.03C-264.752,5447.283-143.609,5521.356,76.747,5493.371Z" transform="translate(318.755 -3570.446)"/>
          <path id="Path_53-2" data-name="Path 53" class="cls-7" d="M44.936,5544.637c265.409-33.384,455.089-167.417,541.836-233.685,94.609-69.337,256.308-230.1,418.676-510.042,160.768-280.181,290.806-487.207,376.158-580.713,75.11-90.308,247.044-267.562,481.163-308.5,234.109-37.452,324.324,97.449,353.085,175.593,50.277,66.391,25.658,203.578,113.8,447.717V4510.1c-73.764-230.692-50.076-364.39-94.865-430.076-26.591-83.25-115.461-228.2-361.88-190.459-246.015,41.813-424.369,228.034-501.85,322.079-82.874,92.426-210.326,295.463-365.607,566.684-156.627,271.211-309.74,429.572-399.64,498.918C518.7,5347,327.414,5489.5,56.057,5525.291c-192.838,22.586-309.74-29.32-374.812-86.531v30.722C-251.51,5520.8-136.782,5565.063,44.936,5544.637Z" transform="translate(318.755 -3565.409)"/>
          <path id="Path_54-2" data-name="Path 54" class="cls-3" d="M13.02,5592.865c274.928-30.722,472.161-163.343,562.01-228.863,97.557-68.342,265.878-226.457,430.418-503.731,162.834-277.367,286.875-483.807,368.912-577.312,72.418-90.35,235.878-268.144,460.06-311.242,224.182-39.529,314.079,92.674,345.84,168.907,53.7,66.517,29.8,203.952,149.391,452.909v-19.848c-104.9-238.411-82.663-374.765-131.382-441.2-29.695-81.464-118.151-223.922-354.018-183.937-235.771,44.053-405.852,231.106-480.23,325.358-79.865,92.592-201.532,294.8-358.572,563.77-158.491,268.976-317.809,425.015-410.607,493.6-90.211,68.93-289.2,210.02-570.6,243.15-162.318,16.692-271.565-15.859-343-59.874v26.157C-246.907,5579.992-140.556,5608.146,13.02,5592.865Z" transform="translate(318.755 -3560.159)"/>
          <path id="Path_55-2" data-name="Path 55" class="cls-5" d="M107.627,5439.311C352.71,5401.274,527.39,5266,608.342,5198.321c88.143-69.925,236.75-233.26,397.106-516.937,159.318-283.671,301.568-489.865,393.743-582.125,81.625-89.769,270.223-264.032,524.1-300.238,253.865-32.761,346.879,106,371.286,187.051,31.145,46.172,27.321,126.39,35.076,250.207V4023.856c-3.518-16.317-8.073-31.017-15.213-42.974-21.622-86.074-113.479-235.01-380.4-202.043-266.386,36.747-462.23,219.772-545.815,313.029-89.483,91.263-228.525,292.805-382.779,567.014-155.229,274.2-295.877,434.64-379.725,504.4-81.262,71-257.185,214.246-507.386,254.859-251.6,36.948-370.623-72.663-408.021-140.257-13.448-13.376-22.139-31.812-29.07-53.98v56.719A106.354,106.354,0,0,0-297.7,5308.1C-258.96,5372.047-138.539,5474.354,107.627,5439.311Z" transform="translate(318.755 -3575.262)"/>
        </g>
        <g id="Group_2587" data-name="Group 2587" class="cls-2" transform="translate(-556.96 4015.774)">
          <path id="Path_12-3" data-name="Path 12" class="cls-3" d="M166.6,5322.386c225.373-42.679,384.692-176.959,460.006-244.553,82.091-69.925,218.343-233.438,378.847-516.69,159.943-283.341,315.944-486.462,414.74-576.439,87.737-87.486,292.574-257.306,566.208-288.364,184.456-18.643,287.807,39.4,343.255,104.468v-33.923c-59.9-58.627-162.009-105.173-331.984-88.9-286.874,31.39-498.948,209.225-588.962,300.238-96.105,88.939-248.176,287.2-403.257,560.332C849.806,4811.682,720.33,4972.118,642.223,5041.37c-75.676,70.673-236.131,212.758-465.953,257.929-230.959,41.608-346.932-59.534-387.536-122.978-54.417-46.923-49.452-149.892-107.488-358.832v41.276c48.623,204.7,45.106,303.023,101.228,348.7C-176.352,5267.41-59.863,5361.918,166.6,5322.386Z" transform="translate(318.755 -3584.232)"/>
          <path id="Path_13-3" data-name="Path 13" class="cls-4" d="M137.68,5382.375c235.408-40.613,402.279-175.641,480.231-243.236,85.038-70.085,227.393-233.846,387.536-517.771,159.318-284,308.391-488.948,403.882-580.211,84.527-88.565,281.186-261,545.2-294.716,244.765-28.028,343.466,89.727,375.12,172.312v-51.361c-45.828-79.6-149.9-163.551-363.944-140.217-277.162,34.172-480.856,214.954-567.554,307.048-92.895,90.31-238.251,290.606-392.705,564.73-155.08,274.12-290.083,434.726-370.931,504.31-78.418,70.919-246.375,213.923-486.49,256.849-241.46,39.362-358.621-66.183-397.312-131.864-43.761-40.442-46.5-120.494-69.469-268.149v92.764c14.018,109.866,22.811,171.975,62.072,206.109C-216.854,5320.919-98.813,5419.653,137.68,5382.375Z" transform="translate(318.755 -3579.858)"/>
          <path id="Path_14-3" data-name="Path 14" class="cls-5" d="M276.293,5120.768c196.562-48.24,335.4-177.458,403.677-243.4,74.275-67.424,195.063-227.121,359.6-502.568,164.8-275.949,342.322-469.769,451.267-554.471,75.415-63.777,227.7-171.773,430.26-228.616h-44.387c-187.243,61.535-327.427,162.182-398.7,223.218-105.322,83.458-277.882,272.13-438.438,537.282-160.144,264.659-275.657,420.357-346.621,487.212-68.952,68.589-208.871,204.7-409.158,255.352-201.423,47.748-316.153-37.373-364.467-92.509-64.606-43.437-65.123-146.235-203.958-368.959v17.355c136.248,235.183,134.179,340.141,202.2,383.654C-35,5086.729,78.75,5166.279,276.293,5120.768Z" transform="translate(330.977 -3591.717)"/>
          <path id="Path_15-3" data-name="Path 15" class="cls-6" d="M219.2,5193.1c205.871-46.5,351.069-178.038,421.364-244.638,76.814-68.674,202.3-230.275,364.881-509.05,162.315-278.814,332.6-476.746,438.438-563.649,94.654-84.453,314.6-247.466,606.75-272.834,125.185-9.509,214.35,11.916,279.015,45.215v-24c-33.826-15.239-75.83-25.785-123.32-32.429H2024.872c-286.77,35.542-500.506,194.36-593.3,278.482-102.525,85.45-268.357,278.523-426.128,546.625-157.972,268.224-277.72,426.168-350.914,494.264-70.917,69.423-217.1,207.936-427.107,257.019-210.993,45.833-325.568-44.924-371.036-103.053-62.33-46.09-58.709-153.379-175.146-382.83v19.686c112.35,240.735,105.729,348.773,171.63,394.777C-102.124,5151.833,12.141,5236.867,219.2,5193.1Z" transform="translate(318.755 -3591.717)"/>
          <path id="Path_16-3" data-name="Path 16" class="cls-7" d="M193.856,5259.449c215.494-44.593,367.622-177.8,440.349-245.062,79.3-69.339,209.859-232.019,371.242-513.7,160.768-281.678,324.017-482.432,426.329-570.955,91.148-86.115,303.635-252.78,586.792-281.014,150.111-13.287,247.976,20.677,311.082,67.6v-26.781c-64.559-41.729-159.625-69.922-299.917-58.255-296.494,28.484-516.332,203-609.853,292.476-99.421,87.359-258.22,283.132-414.433,554.433C848.82,4749.569,724.52,4908.679,648.948,4977.6c-73.142,70.256-226.356,210.683-446.04,257.843-220.872,43.853-335.964-52.313-378.847-113.182-59.226-47.586-53.484-155.955-142.816-383.236v25.655c82.866,234.595,75.521,341.723,137.851,388.968C-137.97,5211.2-22.724,5301.133,193.856,5259.449Z" transform="translate(318.755 -3588.387)"/>
          <path id="Path_17-3" data-name="Path 17" class="cls-7" d="M-49.984,4834.191c55.658,42.441,169.819,103.8,343.827,53.318,173.285-52.9,295.723-172.809,358.932-234.264,68.744-62.7,178.768-212.838,352.672-472.427,174.626-259.632,373.361-439,491.5-515.983,29.281-20.636,69.738-46.42,118.458-73.119h-24.725a1250.1,1250.1,0,0,0-107.8,68.427c-114.412,75.693-306.939,249.75-477.434,498.128-169.816,248.421-276.118,394.164-342.12,455.856-64.556,63.778-188.492,189.341-365.5,244.647-177.733,52.73-294.377-12.619-352.414-57.3-67.916-32.892-85.659-112.11-264.167-290.148v13.945C-134.609,4718.263-121.47,4800.645-49.984,4834.191Z" transform="translate(318.755 -3591.717)"/>
          <path id="Path_18-3" data-name="Path 18" class="cls-3" d="M-33.445,4903.122c52.657,45.918,166.3,113.844,347.448,64.855,180.422-51.4,307.567-175.053,372.121-238.166,70.292-64.525,183.167-218.4,353.449-484.386,170.907-265.9,362.609-450.669,477.645-530.515,44.694-33.507,115.45-79.763,205.25-123.194h-27.521c-83.276,42.227-148.766,86.074-191.183,118.253-111.731,78.557-297.628,258.177-464.192,512.95-166.1,254.855-274.766,404.33-342.12,468.105-65.642,65.6-194.13,195.156-378.174,249.213-184.87,51.072-300.377-21.258-354.947-69.67-67.348-36.956-77.952-124.653-248.961-321.041v14.779C-111.295,4774.82-104.311,4865.748-33.445,4903.122Z" transform="translate(330.977 -3591.717)"/>
          <path id="Path_19-3" data-name="Path 19" class="cls-4" d="M-89.916,4969.883c49.916,49.329,163.559,123.155,352.568,75.655,187.976-49.746,320.757-176.3,387.072-240.989,72.055-66.1,188.547-223.132,355.724-494.434,167.59-271.257,352.26-460.926,464.192-543.385,59.388-47.376,165.218-119.291,303.74-175.013h-31.865c-129.413,56.054-228.315,124.231-284.8,169.905-108.945,81.216-288.02,265.735-451.267,525.988-162.887,260.251-274.668,413.222-343.517,478.571-67.348,67.347-201.217,200.215-392.916,252.613-192.734,49.5-307.67-29.226-359.034-81.292-66.418-40.443-70.867-136.022-228.736-348.033v15.7C-160.936,4830.7-159.8,4929.031-89.916,4969.883Z" transform="translate(318.755 -3591.717)"/>
          <path id="Path_20-3" data-name="Path 20" class="cls-4" d="M-31.827,4614.461c65.538,30.731,184.043,69.924,342.637,15.365,158.18-56.054,271.928-161.762,333.74-217.071,66.676-55.556,172.818-190.583,360.9-425.757,142.865-177.294,301.674-311.324,425.2-395.281h-20.69c-118.15,81.548-268.05,207.9-404.506,372.735C821.4,4188.292,717.381,4318.668,652.672,4372.978c-63.78,56.885-180.164,166.669-342.637,225.292-162.992,56.8-285.79,15.2-354.846-16.853-65.589-20.18-103.971-70.588-273.945-184.938v14.367C-136.057,4539.23-101.3,4593.458-31.827,4614.461Z" transform="translate(318.755 -3591.717)"/>
          <path id="Path_21-3" data-name="Path 21" class="cls-5" d="M2.5,4689.869c62.02,34.873,178.663,81.881,341.344,28.564,162.112-55.308,277.617-166.083,339.535-223.719,66.877-58.292,173.492-199.132,356.189-443.069,167.8-222.761,358.159-380.291,484.266-459.929h-21.834c-122.071,79.306-302.289,229.861-462.433,437.383-178.609,232.685-282.691,368.79-347.4,426-63.469,59.542-181.251,174.968-347.346,232.681-166.766,55.563-286.979,5.732-352.205-30.808-67.193-24.66-98.85-84.865-277.256-221.553v14.279C-96.345,4600.516-68.257,4664.538,2.5,4689.869Z" transform="translate(330.977 -3591.717)"/>
          <path id="Path_22-3" data-name="Path 22" class="cls-6" d="M-37.878,4763.2c58.709,38.776,174.008,93.088,341.86,41.106,167.078-54.064,285.687-169.662,347.915-229.365,67.554-60.621,175.356-206.277,353.551-458.767,179.075-252.406,384.326-425.674,505.368-499.582,11.485-7.557,25.351-16.151,39.832-24.872H1528.4c-11.165,6.976-22.86,14.118-32.172,20.3-117.007,72.578-315.838,240.572-490.781,481.6-174.01,241.155-278.755,382.323-343.878,441.865-63.779,61.7-184.1,182.527-355.053,239.162-171.68,54.149-289.979-3.734-351.43-44.423-67.865-28.818-93.056-98.819-273.841-256.516v14.031C-130.161,4660.056-109.262,4733.629-37.878,4763.2Z" transform="translate(318.755 -3591.717)"/>
          <path id="Path_23-3" data-name="Path 23" class="cls-6" d="M281.222,4348.065c156.319-58.628,271.67-145.656,336.38-191.869,69.157-46.047,180.475-160.728,387.846-363.143,80.077-77.437,163.661-144.618,243.939-201.336h-23.273c-72.726,51.487-148.047,110.987-220.666,178.79-203.186,191.33-313.723,300.779-381.692,345.5-67.554,47.334-187.095,136.728-349.568,197.681-162.577,59.791-294.688,45.674-374.863,28.733-55.089-7.64-102.212-28.733-218.08-77.977V4281.8C-185.094,4342.335-137.3,4367-77.243,4375.3-1.722,4391.745,124.7,4405.7,281.222,4348.065Z" transform="translate(318.755 -3591.717)"/>
          <path id="Path_24-3" data-name="Path 24" class="cls-7" d="M297.051,4444.56c155.231-57.963,268.617-151.635,331.878-201.128,67.659-49.493,176.076-171.441,376.519-385.731,100.968-107,208.662-196.146,307.257-265.985h-21.516c-92.08,65.438-191.5,146.777-285.741,243.439-196.353,203.08-303.583,320.086-369.793,368.333-65.694,50.739-182.751,147.317-343.414,207.688-160.974,58.962-289.411,35.3-365.966,13.121-60.056-11.792-106.2-42.186-245.029-112.523V4327.8c155.076,82.627,200.287,116.842,264.686,129.3C18.09,4478.607,141.509,4501.193,297.051,4444.56Z" transform="translate(318.755 -3591.717)"/>
          <path id="Path_25-3" data-name="Path 25" class="cls-3" d="M306.724,4538.566c155.749-56.973,268.72-156.952,331.1-209.434,66.779-52.815,173.6-181.531,367.622-406.783,121.455-139.884,253.771-251.2,367.259-330.633h-20.689c-107.695,75.943-231.63,179.5-346.57,308.086-190,213.917-295,337.815-360.121,389.3-64.607,54.144-180.63,157.445-341.346,216.987-161.025,57.884-286.411,25.161-359.242-2.075-63.416-16.029-106.556-56.387-263.495-148.562v15.031c171.888,105.631,212.131,149.645,279.634,166.584C29.779,4563.141,150.561,4594.205,306.724,4538.566Z" transform="translate(318.755 -3591.717)"/>
          <path id="Path_26-3" data-name="Path 26" class="cls-3" d="M-203.094,4116.418c85.244.5,223.614-15.03,395.088-74.53,171.733-59.708,303.171-123.234,376.519-158.695,78-34.129,205.718-122.777,436.935-283.962,3.825-2.615,7.659-4.941,11.483-7.516H982.586C770.5,3732.224,647.862,3811.862,573.272,3843.128c-77.229,35.541-215.391,99.651-396.124,161.6-180.63,61.7-325.826,78.972-416.089,79.264a605.923,605.923,0,0,1-79.814-2.533v26.823C-270.856,4115.547-236.975,4117.416-203.094,4116.418Z" transform="translate(318.755 -3591.717)"/>
          <path id="Path_27-3" data-name="Path 27" class="cls-4" d="M229.186,4146.6c164.44-59.5,288.634-131.372,358.363-170.61,74.382-38.407,195.263-136.563,417.9-312.238,32.586-25.453,65.49-49.2,98.383-72.04h-28.858c-23.284,15.987-46.506,32.262-69.525,49.494-218.24,164.8-339.224,257.887-412.727,294.634-73.245,39.694-203.13,112.771-375.536,174.554-172.353,61.285-312.689,67.513-399.847,61.783-38.383-.83-76.35-6.145-136.094-19.971v22.213c78.625,21.425,121.868,29.148,167.594,30.477C-69.02,4210.963,64.849,4205.648,229.186,4146.6Z" transform="translate(318.755 -3591.717)"/>
          <path id="Path_28-3" data-name="Path 28" class="cls-5" d="M258.773,4248.747c159.266-59.126,278.186-138.931,345.173-181.738,71.279-42.311,186.685-148.978,401.5-338.6a2089.379,2089.379,0,0,1,175.039-136.688h-25.753c-49.759,34.878-99.994,72.7-149.285,114.142-210.633,178.54-325.619,280.184-395.864,320.958-70.09,43.638-194.079,125.144-360.277,186.554-166.3,60.62-302.394,56.469-386.088,45.008-48.1-3.819-93.21-16.442-181.973-46.336v19.265c107.746,39.695,155.336,55.389,209.389,59.875C-30.637,4302.475,99.4,4307.043,258.773,4248.747Z" transform="translate(318.755 -3591.717)"/>
          <path id="Path_29-3" data-name="Path 29" class="cls-5" d="M493.4,3594.042c3-.622,6.621-1.619,9.726-2.325H326.9c-88.815,19.764-197.544,45.341-322.1,79.8-129.678,36.414-235.976,68.344-323.55,93.423v46.67c89.487-24.124,204.578-58.711,347.965-100.066C239.531,3651.591,404.746,3615.841,493.4,3594.042Z" transform="translate(318.755 -3591.717)"/>
          <path id="Path_30-3" data-name="Path 30" class="cls-6" d="M521.545,3692.281c54.572-15.363,131.436-47.625,241.456-100.564H692.345c-70.916,29.938-125.539,49.95-166.507,60.746-87.316,26.2-247.719,70.795-454.264,132.826-164.388,49.908-295.05,84.745-390.33,103.844v40.233c91.556-14.075,230.39-48.911,411.33-105.09C287.172,3764.237,438.834,3718.813,521.545,3692.281Z" transform="translate(318.755 -3591.717)"/>
          <path id="Path_31-3" data-name="Path 31" class="cls-7" d="M146.681,3934.391c181.613-59.79,322.206-114.6,399.848-145.823,70.917-25.41,181.82-87.485,364.16-196.851H864.955c-151.815,85.078-249.837,135.192-313.926,156.908-81.936,31.017-230.237,85.659-422.245,147.733C-62.966,3958.432-213.44,3987-306.5,3993.559c-4.034.373-8.172.705-12.259,1v33.758c18.776-.167,36-1.038,52.71-2.491C-177.9,4020.382-34.827,3994.347,146.681,3934.391Z" transform="translate(318.755 -3591.717)"/>
          <path id="Path_32-3" data-name="Path 32" class="cls-4" d="M-26.966,3591.717H-205.423c-40.139,11.627-78.365,23.086-113.332,34.048v50.821c77.072-24.414,168.06-52.357,274.617-80.592C-38.241,3594.458-32.81,3593.213-26.966,3591.717Z" transform="translate(318.755 -3591.717)"/>
          <path id="Path_33-3" data-name="Path 33" class="cls-3" d="M1422.235,5545.579H1675.7c10.139-1.164,20.382-2.406,30.415-3.4v-43.189c-88.043,6.566-181.247,19.185-273.74,43.522C1428.856,5543.5,1425.647,5544.584,1422.235,5545.579Z" transform="translate(942.293 -3419.7)"/>
          <path id="Path_34-3" data-name="Path 34" class="cls-4" d="M1423.948,5230.86c-185.177,63.284-309.525,189.009-388.468,248.635-29.377,23.751-70.034,56.216-123.523,93.088h53.594c37.649-26.241,68.487-49.745,91.868-67.85,77.894-56.463,201.32-174.713,384.632-235.75,159.731-51.157,325.776-30.061,446.818-13.122v-30.23C1764.416,5205.453,1590.924,5176.388,1423.948,5230.86Z" transform="translate(759.536 -3446.704)"/>
          <path id="Path_35-3" data-name="Path 35" class="cls-5" d="M1436.849,5332.3c-193.356,61.871-324.738,174.977-409.264,231.525h64.356c83.583-56.965,202.456-141.507,366.116-192.494,135.006-40.6,273.634-40.273,389.4-32.883v-34.21C1726.627,5293.273,1579.513,5288.452,1436.849,5332.3Z" transform="translate(800.948 -3437.942)"/>
          <path id="Path_36-3" data-name="Path 36" class="cls-7" d="M1448.393,5436.292c-109.241,32.466-200.178,76.565-275.392,118.667h93.828c60-28.487,128.394-56.217,205.983-78.555,109.866-30.562,221.385-40.613,322.565-42.773v-38.614C1687.375,5394.522,1566.851,5402.491,1448.393,5436.292Z" transform="translate(853.029 -3429.079)"/>
          <path id="Path_37-3" data-name="Path 37" class="cls-6" d="M1406.783,4942.093c-163.968,62.117-273.221,209.765-340.364,280.929-64.864,71.336-181.033,213.831-406.773,366.716-4.29,2.906-8.592,5.313-12.882,8.136h34.091c221.9-147.4,337.778-284.084,402.748-353.345,65.278-67.757,172.655-207.1,332.6-267.232,159.318-57.3,314.4,4.65,416.3,36.872,41.273,12.211,86.9,29.32,151.351,51.4v-21.088c-65.9-24.253-111.424-43.02-152.7-56.3C1726.869,4952.476,1570.041,4883.052,1406.783,4942.093Z" transform="translate(664.557 -3471.996)"/>
          <path id="Path_38-3" data-name="Path 38" class="cls-7" d="M1409.035,5035.666c-168.535,62.7-281.186,203.7-351.338,271.21-58.032,58.632-158.067,166.082-334.875,282.758h39.313c162.94-107.374,258.019-205.359,314.185-259.917,68.7-64.278,179.594-196.976,345.025-257.6,164.794-57.883,330.637-4.233,439.571,22.917,28.031,6.812,58.858,15.367,95.693,25.494v-23.665c-39.006-11.794-70.862-21.591-99.941-29.312C1745.149,5036.991,1577.039,4976.124,1409.035,5035.666Z" transform="translate(691.797 -3463.756)"/>
          <path id="Path_39-3" data-name="Path 39" class="cls-3" d="M1414.977,5132.024c-175.557,62.944-293.3,196.474-367.365,260.25-46.761,42.517-121.457,111.779-237.118,188.922H857.16c100.246-67.016,167.284-126.642,210.633-164.669,73.138-60.708,189.212-186.431,361.973-247.3,172.463-58.376,350.606-13.036,466.374,8.8,9.312,1.743,19.036,3.734,29.069,5.732v-27.076c-12.723-2.822-24.831-5.646-36.316-8.052C1770.34,5123.631,1589.921,5071.981,1414.977,5132.024Z" transform="translate(723.197 -3455.318)"/>
          <path id="Path_40-3" data-name="Path 40" class="cls-3" d="M1797.7,4761.948c-83.382-50.162-212.074-142.672-373.149-86.447-161.7,59.789-271.049,224.545-332.609,305.259-61.866,80.223-164.18,245.063-366.327,438.543-88.192,83.547-178.662,149.483-263.029,202.128h27.257A1673.876,1673.876,0,0,0,725.611,5442.06c211.459-195.726,316.569-362.812,379.982-443.28,60-77.229,166.045-232.844,321.633-290.812,155.081-54.8,282.638,29.066,364.675,75.154,60.935,28.733,117.632,77.646,257.913,151.549v-15.688C1911.906,4842.833,1856.565,4791.922,1797.7,4761.948Z" transform="translate(598.592 -3495.553)"/>
          <path id="Path_41-3" data-name="Path 41" class="cls-4" d="M1414.138,4761.781c-160.662,60.953-268.463,220.393-331.369,298.2-62.067,77.646-168.312,236.007-377.292,416.374C643.144,5529.588,580.145,5574.6,518.8,5613.79h28.656a1687.781,1687.781,0,0,0,158.025-114.934c218.907-182.025,327.84-341.883,391.986-419.775,61.242-74.073,166.149-224.961,321.431-283.839,154.869-55.8,290.594,21.428,379.05,62.952,56.7,23.248,114.316,61.029,231.736,115.588v-17.024c-116.286-57.05-172.867-96.821-228.218-121.319C1711.247,4789.842,1574.281,4704.561,1414.138,4761.781Z" transform="translate(618.725 -3487.911)"/>
          <path id="Path_42-3" data-name="Path 42" class="cls-5" d="M1408.208,4850.667c-161.075,61.617-269.088,215.412-333.54,290.064-63.414,74.491-173.8,225.292-390.947,392.455-34.758,26.5-69.516,50.247-104.178,72.747h30.88c24.418-15.944,48.88-32.39,73.3-50.238,227.5-168.081,341.4-319.877,406.572-394.7,63.106-71.006,168.323-216.406,325.151-276.034,156.012-56.557,300.943,13.368,396.021,50.153,50.489,17.772,104.591,44.849,196.459,82.051v-18.938c-91.974-39.608-145.451-68.428-195.219-87.356C1715.465,4870.1,1568.967,4792.538,1408.208,4850.667Z" transform="translate(640.482 -3480.053)"/>
          <path id="Path_43-3" data-name="Path 43" class="cls-5" d="M782.7,5269.746c190.77-229.943,292.363-415.21,357.535-502.489,59.377-83.539,175.039-251.288,341.4-306.178,166.138-51.318,273.94,51.319,337.46,108.7,65.076,43.6,102.524,126.14,287.807,262.75v-12.874c-178.768-137.435-214.871-221.722-276.843-266.568-63.934-62.195-172.041-174.381-345.745-121.736-174.319,56.472-294.419,233.762-355.564,321.2-63.828,86.7-163.248,269.306-346.052,494.607-174.626,212.92-364,335.651-479.506,395.94h26.742C451.7,5576.5,623.485,5459.077,782.7,5269.746Z" transform="translate(541.506 -3517.222)"/>
          <path id="Path_44-3" data-name="Path 44" class="cls-6" d="M763.4,5327.343c197.084-219.391,298.771-399.181,362.81-484.547,59.176-81.465,170.494-245.973,332.185-302.028,160.98-52.646,274.565,44.345,343.785,98.241,64.864,38.861,109.972,110.282,285.424,225.879V4851.18c-169.869-116.923-213.939-190.249-275.911-230.522-70.14-58.3-184.149-164.423-352.461-110.443-168.735,57.8-284.194,231.431-345.129,316.807-62.482,84.865-162.209,262.325-350.7,477.82A1628.429,1628.429,0,0,1,357.083,5636.1h25.19C495.917,5569.413,633.455,5470.176,763.4,5327.343Z" transform="translate(560.807 -3510.218)"/>
          <path id="Path_45-3" data-name="Path 45" class="cls-7" d="M744.722,5384.812c203.906-207.937,306.632-381.749,370.258-464.871,59.388-79.475,167.389-239.825,325.362-296.79,157.04-53.819,277.458,36.947,353.085,86.939,63.413,33.886,115.767,94.092,275.5,188.421v-14.533c-155.694-96.243-206.7-158.437-267.732-193.65-76.867-54.474-197.805-153.879-361.677-98.658-164.392,58.794-276.324,228.2-337.259,311.407-62.068,82.714-162.633,254.442-357.535,459.224-113.956,118.259-232.615,204.535-335.5,266.568H435.4C532.849,5569.081,640.958,5489.361,744.722,5384.812Z" transform="translate(579.481 -3502.992)"/>
          <path id="Path_46-3" data-name="Path 46" class="cls-7" d="M850.873,5095.64c175.557-256.1,282.224-453.91,352.884-545.339,63.307-88.437,196.447-263.41,383.394-313.817,186.84-47,282.532,70.585,330.224,137.768,62.588,56.218,69.928,168.745,257.7,366.213v-12.288c-177.729-195.733-184.255-309.5-242.7-366.88-46.866-72-142.357-199.551-338.815-151.719-196.448,51.9-335.288,236.343-400.365,328.512-68.891,90.852-173.587,285-342.322,534.879-170.282,249.128-355.052,391.545-459.8,454.487-56.487,34.55-151.973,89.271-278.239,135.359h37.295c96.264-37.865,171.009-78.725,218.391-106.124C478.441,5494.072,673.345,5351.076,850.873,5095.64Z" transform="translate(473.33 -3536.936)"/>
          <path id="Path_47-3" data-name="Path 47" class="cls-3" d="M825,5153.8c179.7-247.8,283.983-442.2,352.672-532.721,61.348-86.939,188.078-260.085,367.566-312.237,179.086-48.58,277.882,64.524,330.437,128.714,63.72,52.321,82.036,155.537,273.528,333.329v-12.449c-182.285-176.881-199.669-281.849-259.672-335.166-52.343-68.92-150.937-191.74-339.016-142.164-188.492,53.645-320.287,236.17-383.606,326.937C1099.975,4697.65,997.451,4889.311,825,5131.3c-174.478,241.822-365.4,379.256-472.989,440.21-38.8,22.253-95.229,53.478-166.922,84.949h30.519c46.3-21.174,84.78-41.191,113.281-56.634C441.754,5539.362,642.966,5401.35,825,5153.8Z" transform="translate(499.206 -3530.576)"/>
          <path id="Path_48-3" data-name="Path 48" class="cls-4" d="M803.24,5211.915c185.282-239.58,287.5-429.5,354.229-518.511,60.2-85.375,180.834-256.11,353.288-309.588,172.04-50.155,275.19,57.969,333.02,118.922,64.547,48.164,92.281,141.082,283.666,298.864v-12.534c-183.323-157.782-209.9-252.537-271.25-301.866-57.936-65.682-160.874-183.27-341.507-132.116-180.832,55.057-306.218,235.179-368.5,324.448-64.864,88.352-165.419,275.447-342.947,509.795C623.752,5423.422,427.032,5554.963,316.8,5613.672c-19.139,10.213-43.813,22.925-70.969,36.207H274.9c6-2.992,13.034-6.395,18.362-9.048C408.565,5582.862,615.785,5451.16,803.24,5211.915Z" transform="translate(520.963 -3524)"/>
          <path id="Path_49-3" data-name="Path 49" class="cls-4" d="M-18.947,5638.215c284.238-28.07,488.61-158.778,581.666-222.97,100.609-67.263,275.752-222.554,442.729-495.849,165.218-273.371,283.983-478.484,363.021-571.992,69.516-90.185,225.009-268.185,439.573-313.318,214.045-41.562,304.249,87.775,339.431,162.016,56.378,64.938,38.168,198.968,182.178,441.036v-14.779c-131.594-236.091-113.077-369.956-164.8-435.476-33.2-79.513-122.378-218.9-347.81-176.8-225.528,46.3-387.218,233.515-458.915,327.683-76.761,92.512-193.663,293.637-352.672,559.125C844.732,5162.3,679.1,5315.762,583.254,5383.271c-93.366,67.765-299.963,207.188-590.976,237.418-138.007,12.373-238.512-8.554-311.033-41.276v22.509C-246.854,5631.073-149.764,5649.423-18.947,5638.215Z" transform="translate(318.755 -3554.683)"/>
          <path id="Path_50-3" data-name="Path 50" class="cls-5" d="M1005.448,4978.309c168.111-268.559,282.224-471.766,358.159-564.854,67.132-89.685,214.976-267.312,419.709-314.355,204.626-43.514,295.975,82.419,334.874,154.418,58.657,62.529,47.9,190.83,211.46,421.021v-13.2c-151.764-225.964-140.493-354.842-194.7-418.286-37.448-77.313-127.865-213.086-343.255-168.909-215.6,48.289-369.124,235.093-438.438,328.68-73.868,92.424-186.107,291.892-347.809,553.061-163.46,260.921-335.5,411.145-434.4,477.412-96.366,66.269-310.153,203.371-610.789,230.769-117.471,9.142-208.613-4.311-279.013-28.062v20.6c25.4,7.635,53.9,13.7,84.625,18.264H-7.258c270.117-33.47,465.955-150.886,557.1-210.427C653.654,5398.415,835.526,5246.62,1005.448,4978.309Z" transform="translate(318.755 -3548.986)"/>
          <path id="Path_51-3" data-name="Path 51" class="cls-6" d="M884.1,5037c171.426-262.665,281.6-463.458,354.844-555.883,65.172-89.44,205.463-265.739,400.884-314.568,195.314-45.341,288.633,76.482,331.665,146.32,60.733,59.625,58.763,180.536,236.81,395.531v-12.458c-167.072-212.087-164.392-334.078-220.878-394.7-42.1-74.9-134.687-206.692-340.15-160.6-205.665,49.992-351.741,235.924-418.67,329.1-71.5,91.761-179.7,289.153-344.5,544.838-166.659,255.683-345.068,402.088-446.919,466.773-75,48.751-218.855,136.694-417.124,187.6h48.83C229.6,5620.786,349.351,5552.2,415.3,5511.584,522.221,5447.144,710.5,5299.5,884.1,5037Z" transform="translate(440.102 -3543.071)"/>
          <path id="Path_52-3" data-name="Path 52" class="cls-6" d="M76.747,5493.371C331.81,5457.5,513.993,5322.8,597.893,5255.707c91.4-69.764,246.426-232.189,407.555-514.446,160.144-282.759,295.88-489.538,384.326-582.3,78.52-90.434,258.951-266.4,502.679-304.931,243.95-35.167,335.5,101.851,361.676,181.7,45.415,63.776,22.767,191.33,75.523,414.633v-41.109c-37.66-200.381-17.067-318.467-56.179-379.752-23.687-84.828-113.9-231.979-370.459-196.519-256.048,39.279-443.3,224.09-523.791,318.093-85.967,91.678-218.905,293.887-373.774,567.675-155.641,273.124-302.5,432.82-389.295,502.489C531.891,5291.829,348.209,5435,87.506,5473.193c-238.046,31.3-358.983-59.049-406.261-127.885v39.03C-264.752,5447.283-143.609,5521.356,76.747,5493.371Z" transform="translate(318.755 -3570.446)"/>
          <path id="Path_53-3" data-name="Path 53" class="cls-7" d="M44.936,5544.637c265.409-33.384,455.089-167.417,541.836-233.685,94.609-69.337,256.308-230.1,418.676-510.042,160.768-280.181,290.806-487.207,376.158-580.713,75.11-90.308,247.044-267.562,481.163-308.5,234.109-37.452,324.324,97.449,353.085,175.593,50.277,66.391,25.658,203.578,113.8,447.717V4510.1c-73.764-230.692-50.076-364.39-94.865-430.076-26.591-83.25-115.461-228.2-361.88-190.459-246.015,41.813-424.369,228.034-501.85,322.079-82.874,92.426-210.326,295.463-365.607,566.684-156.627,271.211-309.74,429.572-399.64,498.918C518.7,5347,327.414,5489.5,56.057,5525.291c-192.838,22.586-309.74-29.32-374.812-86.531v30.722C-251.51,5520.8-136.782,5565.063,44.936,5544.637Z" transform="translate(318.755 -3565.409)"/>
          <path id="Path_54-3" data-name="Path 54" class="cls-3" d="M13.02,5592.865c274.928-30.722,472.161-163.343,562.01-228.863,97.557-68.342,265.878-226.457,430.418-503.731,162.834-277.367,286.875-483.807,368.912-577.312,72.418-90.35,235.878-268.144,460.06-311.242,224.182-39.529,314.079,92.674,345.84,168.907,53.7,66.517,29.8,203.952,149.391,452.909v-19.848c-104.9-238.411-82.663-374.765-131.382-441.2-29.695-81.464-118.151-223.922-354.018-183.937-235.771,44.053-405.852,231.106-480.23,325.358-79.865,92.592-201.532,294.8-358.572,563.77-158.491,268.976-317.809,425.015-410.607,493.6-90.211,68.93-289.2,210.02-570.6,243.15-162.318,16.692-271.565-15.859-343-59.874v26.157C-246.907,5579.992-140.556,5608.146,13.02,5592.865Z" transform="translate(318.755 -3560.159)"/>
          <path id="Path_55-3" data-name="Path 55" class="cls-5" d="M107.627,5439.311C352.71,5401.274,527.39,5266,608.342,5198.321c88.143-69.925,236.75-233.26,397.106-516.937,159.318-283.671,301.568-489.865,393.743-582.125,81.625-89.769,270.223-264.032,524.1-300.238,253.865-32.761,346.879,106,371.286,187.051,31.145,46.172,27.321,126.39,35.076,250.207V4023.856c-3.518-16.317-8.073-31.017-15.213-42.974-21.622-86.074-113.479-235.01-380.4-202.043-266.386,36.747-462.23,219.772-545.815,313.029-89.483,91.263-228.525,292.805-382.779,567.014-155.229,274.2-295.877,434.64-379.725,504.4-81.262,71-257.185,214.246-507.386,254.859-251.6,36.948-370.623-72.663-408.021-140.257-13.448-13.376-22.139-31.812-29.07-53.98v56.719A106.354,106.354,0,0,0-297.7,5308.1C-258.96,5372.047-138.539,5474.354,107.627,5439.311Z" transform="translate(318.755 -3575.262)"/>
        </g>
      </g>
      <rect id="Rectangle_1270" data-name="Rectangle 1270" class="cls-9" width="1780" height="4935" transform="translate(70 70)"/>
      <path id="Path_5528" data-name="Path 5528" class="cls-3" d="M-203.094,4116.418c85.244.5,223.614-15.03,395.088-74.53,171.733-59.708,303.171-123.234,376.519-158.695,78-34.129,205.718-122.777,436.935-283.962,3.825-2.615,7.659-4.941,11.483-7.516H982.586C770.5,3732.224,647.862,3811.862,573.272,3843.128c-77.229,35.541-215.391,99.651-396.124,161.6-180.63,61.7-325.826,78.972-416.089,79.264a605.923,605.923,0,0,1-79.814-2.533v26.823C-270.856,4115.547-236.975,4117.416-203.094,4116.418Z" transform="translate(-239.205 -3611.943)"/>
      <path id="Path_5529" data-name="Path 5529" class="cls-7" d="M146.681,3934.391c181.613-59.79,322.206-114.6,399.848-145.823,70.917-25.41,181.82-87.485,364.16-196.851H864.955c-151.815,85.078-249.837,135.192-313.926,156.908-81.936,31.017-230.237,85.659-422.245,147.733C-62.966,3958.432-213.44,3987-306.5,3993.559c-4.034.373-8.172.705-12.259,1v33.758c18.776-.167,36-1.038,52.71-2.491C-177.9,4020.382-34.827,3994.347,146.681,3934.391Z" transform="translate(-239.205 -3611.943)"/>
    </g>
    <path id="Path_5534" data-name="Path 5534" class="cls-5" d="M782.7,5269.746c190.77-229.943,292.363-415.21,357.535-502.489,59.377-83.539,175.039-251.288,341.4-306.178,166.138-51.318,273.94,51.319,337.46,108.7,65.076,43.6,102.524,126.14,287.807,262.75v-12.874c-178.768-137.435-214.871-221.722-276.843-266.568-63.934-62.195-172.041-174.381-345.745-121.736-174.319,56.472-294.419,233.762-355.564,321.2-63.828,86.7-163.248,269.306-346.052,494.607-174.626,212.92-364,335.651-479.506,395.94h26.742C451.7,5576.5,623.485,5459.077,782.7,5269.746Z" transform="translate(-15.455 498.552)"/>
    <path id="Path_5535" data-name="Path 5535" class="cls-6" d="M763.4,5327.343c197.084-219.391,298.771-399.181,362.81-484.547,59.176-81.465,170.494-245.973,332.185-302.028,160.98-52.646,274.565,44.345,343.785,98.241,64.864,38.861,109.972,110.282,285.424,225.879V4851.18c-169.869-116.923-213.939-190.249-275.911-230.522-70.14-58.3-184.149-164.423-352.461-110.443-168.735,57.8-284.194,231.431-345.129,316.807-62.482,84.865-162.209,262.325-350.7,477.82A1628.429,1628.429,0,0,1,357.083,5636.1h25.19C495.917,5569.413,633.455,5470.176,763.4,5327.343Z" transform="translate(3.847 505.556)"/>
  </g>
</svg>
